<svg width="38" height="38" viewBox="0 0 38 38" fill="none" xmlns="http://www.w3.org/2000/svg">
<g clip-path="url(#clip0_367_6)">
<path d="M28.5 3.16667C31.9928 3.16667 34.8333 6.00717 34.8333 9.5V28.5C34.8333 31.9928 31.9928 34.8333 28.5 34.8333H9.5C6.00717 34.8333 3.16667 31.9928 3.16667 28.5V9.5C3.16667 6.00717 6.00717 3.16667 9.5 3.16667H28.5ZM28.5 0H9.5C4.25283 0 0 4.25283 0 9.5V28.5C0 33.7472 4.25283 38 9.5 38H28.5C33.7472 38 38 33.7472 38 28.5V9.5C38 4.25283 33.7472 0 28.5 0Z" fill="#211D1A"/>
<path d="M18.9998 28.5C18.1258 28.5 17.4165 27.7922 17.4165 26.9167V11.0833C17.4165 10.2093 18.1258 9.5 18.9998 9.5C19.8738 9.5 20.5832 10.2093 20.5832 11.0833V26.9167C20.5832 27.7922 19.8738 28.5 18.9998 28.5Z" fill="#211D1A"/>
<path d="M9.5 19C9.5 18.126 10.2078 17.4167 11.0833 17.4167H26.9167C27.7907 17.4167 28.5 18.126 28.5 19C28.5 19.874 27.7907 20.5833 26.9167 20.5833H11.0833C10.2078 20.5833 9.5 19.874 9.5 19Z" fill="#211D1A"/>
</g>
<defs>
<clipPath id="clip0_367_6">
<rect width="38" height="38" fill="white"/>
</clipPath>
</defs>
</svg>
