<svg width="39" height="39" viewBox="0 0 39 39" fill="none" xmlns="http://www.w3.org/2000/svg">
<path d="M28.4375 39C22.6135 39 17.875 34.2615 17.875 28.4375C17.875 22.6135 22.6135 17.875 28.4375 17.875C34.2615 17.875 39 22.6135 39 28.4375C39 34.2615 34.2615 39 28.4375 39ZM28.4375 20.3125C23.9574 20.3125 20.3125 23.9574 20.3125 28.4375C20.3125 32.9176 23.9574 36.5625 28.4375 36.5625C32.9176 36.5625 36.5625 32.9176 36.5625 28.4375C36.5625 23.9574 32.9176 20.3125 28.4375 20.3125Z" fill="#AA0596"/>
<path d="M28.4375 34.125C28.1143 34.125 27.8043 33.9966 27.5757 33.768C27.3472 33.5395 27.2188 33.2295 27.2188 32.9063V23.9688C27.2188 23.6455 27.3472 23.3355 27.5757 23.107C27.8043 22.8784 28.1143 22.75 28.4375 22.75C28.7607 22.75 29.0707 22.8784 29.2993 23.107C29.5278 23.3355 29.6562 23.6455 29.6562 23.9688V32.9063C29.6562 33.2295 29.5278 33.5395 29.2993 33.768C29.0707 33.9966 28.7607 34.125 28.4375 34.125Z" fill="#AA0596"/>
<path d="M32.9062 29.6562H23.9688C23.6455 29.6562 23.3355 29.5278 23.107 29.2993C22.8784 29.0707 22.75 28.7607 22.75 28.4375C22.75 28.1143 22.8784 27.8043 23.107 27.5757C23.3355 27.3472 23.6455 27.2188 23.9688 27.2188H32.9062C33.2295 27.2188 33.5395 27.3472 33.768 27.5757C33.9966 27.8043 34.125 28.1143 34.125 28.4375C34.125 28.7607 33.9966 29.0707 33.768 29.2993C33.5395 29.5278 33.2295 29.6562 32.9062 29.6562ZM14.9337 34.125H4.46875C3.28383 34.1241 2.14768 33.653 1.30982 32.8152C0.471951 31.9773 0.000860823 30.8412 0 29.6562L0 4.46875C0.000860823 3.28383 0.471951 2.14768 1.30982 1.30982C2.14768 0.471951 3.28383 0.000860823 4.46875 0L23.1562 0C24.3412 0.000860823 25.4773 0.471951 26.3152 1.30982C27.153 2.14768 27.6241 3.28383 27.625 4.46875V14.365C27.625 14.6882 27.4966 14.9982 27.268 15.2268C27.0395 15.4553 26.7295 15.5837 26.4062 15.5837C26.083 15.5837 25.773 15.4553 25.5445 15.2268C25.3159 14.9982 25.1875 14.6882 25.1875 14.365V4.46875C25.1875 3.34912 24.2759 2.4375 23.1562 2.4375H4.46875C3.34912 2.4375 2.4375 3.34912 2.4375 4.46875V29.6562C2.4375 30.7759 3.34912 31.6875 4.46875 31.6875H14.9337C15.257 31.6875 15.567 31.8159 15.7955 32.0445C16.0241 32.273 16.1525 32.583 16.1525 32.9062C16.1525 33.2295 16.0241 33.5395 15.7955 33.768C15.567 33.9966 15.257 34.125 14.9337 34.125Z" fill="#AA0596"/>
<path d="M21.5312 15.4375H6.09375C5.77052 15.4375 5.46052 15.3091 5.23196 15.0805C5.0034 14.852 4.875 14.542 4.875 14.2188C4.875 13.8955 5.0034 13.5855 5.23196 13.357C5.46052 13.1284 5.77052 13 6.09375 13H21.5312C21.8545 13 22.1645 13.1284 22.393 13.357C22.6216 13.5855 22.75 13.8955 22.75 14.2188C22.75 14.542 22.6216 14.852 22.393 15.0805C22.1645 15.3091 21.8545 15.4375 21.5312 15.4375ZM15.0312 21.9375H6.09375C5.77052 21.9375 5.46052 21.8091 5.23196 21.5805C5.0034 21.352 4.875 21.042 4.875 20.7188C4.875 20.3955 5.0034 20.0855 5.23196 19.857C5.46052 19.6284 5.77052 19.5 6.09375 19.5H15.0312C15.3545 19.5 15.6645 19.6284 15.893 19.857C16.1216 20.0855 16.25 20.3955 16.25 20.7188C16.25 21.042 16.1216 21.352 15.893 21.5805C15.6645 21.8091 15.3545 21.9375 15.0312 21.9375ZM13.4062 8.9375H6.09375C5.77052 8.9375 5.46052 8.8091 5.23196 8.58054C5.0034 8.35198 4.875 8.04198 4.875 7.71875C4.875 7.39552 5.0034 7.08552 5.23196 6.85696C5.46052 6.6284 5.77052 6.5 6.09375 6.5H13.4062C13.7295 6.5 14.0395 6.6284 14.268 6.85696C14.4966 7.08552 14.625 7.39552 14.625 7.71875C14.625 8.04198 14.4966 8.35198 14.268 8.58054C14.0395 8.8091 13.7295 8.9375 13.4062 8.9375Z" fill="#AA0596"/>
</svg>
