<svg width="13" height="20" viewBox="0 0 13 20" fill="none" xmlns="http://www.w3.org/2000/svg">
<path d="M12.5963 13.6652C11.6136 12.6947 11.05 11.2762 11.05 9.77352V7.65648C11.05 4.98442 9.35089 2.77242 7.15002 2.40188V1.58168C7.15002 1.16178 6.85877 0.822388 6.49994 0.822388C6.14123 0.822388 5.84998 1.16178 5.84998 1.58168V2.40188C3.64838 2.77242 1.94999 4.98442 1.94999 7.65648V9.77352C1.94999 11.2762 1.38645 12.6947 0.397768 13.6712C0.272963 13.7958 0.172772 13.9506 0.104102 14.1248C0.0354314 14.299 -8.50777e-05 14.4886 1.53037e-07 14.6804C1.53037e-07 15.4132 0.510228 16.0093 1.13746 16.0093H11.8624C12.4898 16.0093 13 15.4132 13 14.6804C13 14.2916 12.855 13.9242 12.5963 13.6652ZM6.49994 19.0466C7.67716 19.0466 8.6619 18.0663 8.88804 16.7686H4.11184C4.3381 18.0663 5.32284 19.0466 6.49994 19.0466Z" fill="#AA0596"/>
</svg>
