<svg width="145" height="115" viewBox="0 0 145 115" fill="none" xmlns="http://www.w3.org/2000/svg">
<path d="M140.176 17.7804C137.281 14.7481 133.284 12.9563 128.736 12.9563H105.856V12.6806C105.856 9.23479 104.477 5.92681 102.134 3.72148C99.7909 1.37833 96.6207 0 93.1749 0H51.8251C48.2414 0 45.0713 1.37833 42.7281 3.72148C40.385 6.06464 39.0067 9.23479 39.0067 12.6806V12.9563H16.2643C11.7158 12.9563 7.71863 14.7481 4.82414 17.7804C1.92966 20.6749 0 24.8099 0 29.2205V97.8612C0 102.41 1.79183 106.407 4.82414 109.301C7.71863 112.196 11.8536 114.125 16.2643 114.125H128.736C133.284 114.125 137.281 112.334 140.176 109.301C143.07 106.407 145 102.272 145 97.8612V29.2205C145 24.6721 143.208 20.6749 140.176 17.7804ZM137.833 97.8612H137.695C137.695 100.342 136.73 102.548 135.076 104.202C133.422 105.856 131.217 106.82 128.736 106.82H16.2643C13.7833 106.82 11.5779 105.856 9.92395 104.202C8.26996 102.548 7.30513 100.342 7.30513 97.8612V29.2205C7.30513 26.7395 8.26996 24.5342 9.92395 22.8802C11.5779 21.2262 13.7833 20.2614 16.2643 20.2614H42.866C44.9335 20.2614 46.5875 18.6074 46.5875 16.5399V12.5428C46.5875 11.0266 47.1388 9.64829 48.1036 8.68346C49.0684 7.71863 50.4468 7.1673 51.9629 7.1673H93.1749C94.6911 7.1673 96.0694 7.71863 97.0342 8.68346C97.9991 9.64829 98.5504 11.0266 98.5504 12.5428V16.5399C98.5504 18.6074 100.204 20.2614 102.272 20.2614H128.874C131.355 20.2614 133.56 21.2262 135.214 22.8802C136.868 24.5342 137.833 26.7395 137.833 29.2205V97.8612Z" fill="#40A283"/>
<path d="M72.5001 29.634C63.1275 29.634 54.5819 33.4934 48.5172 39.558C42.3147 45.7605 38.5933 54.1683 38.5933 63.5409C38.5933 72.9135 42.4526 81.4591 48.5172 87.5238C54.7197 93.7262 63.1275 97.4477 72.5001 97.4477C81.8727 97.4477 90.4184 93.5884 96.483 87.5238C102.685 81.3213 106.407 72.9135 106.407 63.5409C106.407 54.1683 102.548 45.6226 96.483 39.558C90.4184 33.4934 81.8727 29.634 72.5001 29.634ZM91.2454 82.424C86.4212 87.1103 79.8052 90.1426 72.5001 90.1426C65.195 90.1426 58.579 87.1103 53.7549 82.424C48.9307 77.5998 46.0362 70.9838 46.0362 63.6787C46.0362 56.3736 49.0685 49.7576 53.7549 44.9335C58.579 40.1093 65.195 37.2148 72.5001 37.2148C79.8052 37.2148 86.4212 40.2471 91.2454 44.9335C96.0695 49.7576 98.964 56.3736 98.964 63.6787C99.1018 70.9838 96.0695 77.5998 91.2454 82.424Z" fill="#40A283"/>
<path d="M121.568 43.0039C125.298 43.0039 128.322 39.9802 128.322 36.2501C128.322 32.5201 125.298 29.4963 121.568 29.4963C117.838 29.4963 114.814 32.5201 114.814 36.2501C114.814 39.9802 117.838 43.0039 121.568 43.0039Z" fill="#40A283"/>
</svg>
