<svg width="140" height="82" viewBox="0 0 140 82" fill="none" xmlns="http://www.w3.org/2000/svg">
<path d="M123.664 40.2204V39.6953C123.676 17.7845 105.924 0.0125499 84.0136 6.30674e-06C77.4512 -0.00369349 70.9905 1.62051 65.2101 4.7271C59.4297 7.8337 54.5102 12.3257 50.8923 17.8006C36.206 12.8978 20.3258 20.8288 15.4227 35.5151C14.4702 38.3678 13.9831 41.3552 13.9802 44.3627V44.9625C4.00039 47.5549 -1.98817 57.7468 0.604277 67.7263C2.73961 75.9464 10.1544 81.6897 18.6476 81.7019H118.997C130.597 81.7022 140 72.2989 140 60.6989C140 50.8971 133.221 42.3983 123.664 40.2204ZM118.997 77.0345H18.6476C10.9146 76.98 4.69 70.667 4.74455 62.934C4.79326 56.0131 9.89123 50.1661 16.7409 49.1748C17.3353 49.0949 17.876 48.7892 18.251 48.3212C18.626 47.8533 18.8064 47.2589 18.7549 46.6614C18.6919 45.91 18.6476 45.1375 18.6476 44.3627C18.6601 31.4612 29.1294 21.0126 42.0309 21.0255C45.0954 21.0285 48.1294 21.6344 50.9599 22.8087C51.4783 23.0241 52.0568 23.0454 52.5896 22.8688C53.1224 22.6922 53.5737 22.3295 53.8607 21.8472C63.7022 5.20678 85.1702 -0.305126 101.811 9.53666C112.471 15.8414 119.007 27.3101 118.997 39.6953C118.997 40.4678 118.978 41.2169 118.913 41.9684C118.86 42.5719 119.045 43.1721 119.427 43.642C119.81 44.112 120.36 44.4148 120.962 44.4864C129.915 45.5943 136.276 53.7509 135.168 62.7047C134.157 70.873 127.227 77.0138 118.997 77.0345Z" fill="#40A283"/>
</svg>
