<svg width="93" height="116" viewBox="0 0 93 116" fill="none" xmlns="http://www.w3.org/2000/svg">
<path d="M92.1932 25.7497C92.0669 25.7497 92.0669 25.6235 91.9407 25.4973C91.8145 25.3711 91.8145 25.2448 91.6883 25.1186L69.9777 0.757345C69.8515 0.631121 69.5991 0.504897 69.4728 0.378673C69.3466 0.378673 69.3466 0.252448 69.2204 0.252448C68.9679 0.126224 68.5893 0 68.2106 0H14.944C7.1181 0 0.680664 6.43743 0.680664 14.2633V101.737C0.680664 109.563 7.1181 116 14.944 116H78.0561C85.882 116 92.3194 109.563 92.3194 101.737V26.6333C92.3194 26.3808 92.1932 26.0022 92.1932 25.7497ZM70.6088 8.58324L84.6197 24.3613H70.6088V8.58324ZM87.5229 101.61C87.5229 106.912 83.3575 111.203 78.0561 111.203H14.944C9.64258 111.203 5.47718 106.912 5.47718 101.737V14.1371C5.47718 8.83569 9.7688 4.67029 14.944 4.67029H65.8123V26.6333C65.8123 27.8955 66.8221 29.0316 68.2106 29.0316H87.5229V101.61Z" fill="#40A283"/>
<path d="M17.7205 29.0316H38.8C40.0622 29.0316 41.1982 28.0218 41.1982 26.6334C41.1982 25.2449 40.1884 24.2351 38.8 24.2351H17.7205C16.4583 24.2351 15.3223 25.2449 15.3223 26.6334C15.3223 28.0218 16.4583 29.0316 17.7205 29.0316ZM38.8 86.9685H17.7205C16.4583 86.9685 15.3223 87.9783 15.3223 89.3668C15.3223 90.629 16.3321 91.765 17.7205 91.765H38.8C40.0622 91.765 41.1982 90.7552 41.1982 89.3668C41.1982 88.1045 40.0622 86.9685 38.8 86.9685ZM15.3223 42.5376C15.3223 43.7999 16.3321 44.9359 17.7205 44.9359H74.0165C75.2787 44.9359 76.4147 43.9261 76.4147 42.5376C76.4147 41.2754 75.405 40.1394 74.0165 40.1394H17.7205C16.4583 40.1394 15.3223 41.1491 15.3223 42.5376ZM74.0165 52.0044H17.7205C16.4583 52.0044 15.3223 53.0142 15.3223 54.4027C15.3223 55.6649 16.3321 56.8009 17.7205 56.8009H74.0165C75.2787 56.8009 76.4147 55.7911 76.4147 54.4027C76.4147 53.0142 75.405 52.0044 74.0165 52.0044ZM74.0165 63.7433H17.7205C16.4583 63.7433 15.3223 64.7531 15.3223 66.1415C15.3223 67.4038 16.3321 68.5398 17.7205 68.5398H74.0165C75.2787 68.5398 76.4147 67.53 76.4147 66.1415C76.4147 64.7531 75.405 63.7433 74.0165 63.7433ZM74.0165 75.4821H17.7205C16.4583 75.4821 15.3223 76.4919 15.3223 77.8804C15.3223 79.1426 16.3321 80.2786 17.7205 80.2786H74.0165C75.2787 80.2786 76.4147 79.2688 76.4147 77.8804C76.4147 76.6181 75.405 75.4821 74.0165 75.4821Z" fill="#40A283"/>
<path d="M25.1619 12.6364H22.358C22.3381 12.4044 22.285 12.1939 22.1989 12.005C22.116 11.8161 22 11.6536 21.8509 11.5178C21.705 11.3786 21.5277 11.2725 21.3189 11.1996C21.1101 11.1233 20.8731 11.0852 20.608 11.0852C20.1439 11.0852 19.7512 11.1979 19.4297 11.4233C19.1115 11.6487 18.8696 11.9718 18.7038 12.3928C18.5414 12.8137 18.4602 13.3191 18.4602 13.9091C18.4602 14.5322 18.5431 15.0542 18.7088 15.4751C18.8778 15.8928 19.1214 16.2076 19.4396 16.4197C19.7578 16.6286 20.1406 16.733 20.5881 16.733C20.8433 16.733 21.072 16.7015 21.2741 16.6385C21.4763 16.5722 21.652 16.4777 21.8011 16.3551C21.9503 16.2325 22.0713 16.085 22.1641 15.9126C22.2602 15.737 22.3248 15.5398 22.358 15.321L25.1619 15.3409C25.1288 15.7718 25.0078 16.2109 24.799 16.6584C24.5902 17.1025 24.2936 17.5135 23.9091 17.8913C23.5279 18.2659 23.0556 18.5675 22.4922 18.7962C21.9287 19.0249 21.2741 19.1392 20.5284 19.1392C19.5938 19.1392 18.7552 18.9387 18.0128 18.5376C17.2737 18.1366 16.6887 17.5466 16.2578 16.7678C15.8303 15.9889 15.6165 15.036 15.6165 13.9091C15.6165 12.7756 15.8352 11.821 16.2727 11.0455C16.7102 10.2666 17.3002 9.67827 18.0426 9.28054C18.785 8.8795 19.6136 8.67898 20.5284 8.67898C21.1714 8.67898 21.763 8.76681 22.3033 8.94247C22.8435 9.11813 23.3175 9.375 23.7251 9.71307C24.1328 10.0478 24.4609 10.4605 24.7095 10.951C24.9581 11.4415 25.1089 12.0033 25.1619 12.6364ZM30.1348 19.1392C29.3062 19.1392 28.5969 18.9751 28.0069 18.647C27.417 18.3156 26.9645 17.8549 26.6497 17.2649C26.3348 16.6716 26.1774 15.9839 26.1774 15.2017C26.1774 14.4195 26.3348 13.7334 26.6497 13.1435C26.9645 12.5502 27.417 12.0895 28.0069 11.7614C28.5969 11.4299 29.3062 11.2642 30.1348 11.2642C30.9634 11.2642 31.6726 11.4299 32.2626 11.7614C32.8526 12.0895 33.305 12.5502 33.6199 13.1435C33.9347 13.7334 34.0922 14.4195 34.0922 15.2017C34.0922 15.9839 33.9347 16.6716 33.6199 17.2649C33.305 17.8549 32.8526 18.3156 32.2626 18.647C31.6726 18.9751 30.9634 19.1392 30.1348 19.1392ZM30.1547 17.1108C30.3867 17.1108 30.5872 17.0329 30.7562 16.8771C30.9252 16.7214 31.0562 16.4993 31.149 16.2109C31.2418 15.9226 31.2882 15.5795 31.2882 15.1818C31.2882 14.7808 31.2418 14.4377 31.149 14.1527C31.0562 13.8643 30.9252 13.6423 30.7562 13.4865C30.5872 13.3307 30.3867 13.2528 30.1547 13.2528C29.9094 13.2528 29.6989 13.3307 29.5233 13.4865C29.3476 13.6423 29.2134 13.8643 29.1206 14.1527C29.0278 14.4377 28.9814 14.7808 28.9814 15.1818C28.9814 15.5795 29.0278 15.9226 29.1206 16.2109C29.2134 16.4993 29.3476 16.7214 29.5233 16.8771C29.6989 17.0329 29.9094 17.1108 30.1547 17.1108ZM42.6694 11.3636L40.104 19H36.9222L34.3569 11.3636H37.2404L38.4734 16.4148H38.5529L39.7859 11.3636H42.6694ZM46.8766 19.1392C46.0613 19.1392 45.3586 18.9834 44.7686 18.6719C44.182 18.357 43.7296 17.9062 43.4114 17.3196C43.0965 16.7296 42.9391 16.0237 42.9391 15.2017C42.9391 14.4129 43.0982 13.7235 43.4164 13.1335C43.7346 12.5436 44.1837 12.0845 44.7637 11.7564C45.3437 11.4283 46.0281 11.2642 46.8169 11.2642C47.3936 11.2642 47.9157 11.3537 48.383 11.5327C48.8503 11.7116 49.2497 11.9718 49.5811 12.3132C49.9126 12.6513 50.1678 13.0623 50.3468 13.5462C50.5257 14.0301 50.6152 14.5753 50.6152 15.1818V15.8182H43.7942V14.3068H48.0897C48.0864 14.0881 48.03 13.8958 47.9206 13.7301C47.8146 13.5611 47.6704 13.4302 47.4881 13.3374C47.3091 13.2412 47.1053 13.1932 46.8766 13.1932C46.6545 13.1932 46.4507 13.2412 46.2651 13.3374C46.0795 13.4302 45.9303 13.5594 45.8176 13.7251C45.7083 13.8909 45.6503 14.0848 45.6436 14.3068V15.9375C45.6436 16.1828 45.695 16.4015 45.7978 16.5938C45.9005 16.786 46.048 16.9368 46.2402 17.0462C46.4325 17.1555 46.6645 17.2102 46.9363 17.2102C47.1252 17.2102 47.2975 17.1837 47.4533 17.1307C47.6124 17.0777 47.7483 17.0014 47.861 16.902C47.9737 16.7992 48.0565 16.6766 48.1096 16.5341H50.6152C50.5291 17.0644 50.3252 17.5251 50.0037 17.9162C49.6822 18.304 49.2563 18.6056 48.726 18.821C48.199 19.0331 47.5826 19.1392 46.8766 19.1392ZM51.7351 19V11.3636H54.3999V12.8153H54.4794C54.6186 12.2784 54.839 11.8857 55.1406 11.6371C55.4455 11.3885 55.8018 11.2642 56.2095 11.2642C56.3288 11.2642 56.4465 11.2741 56.5625 11.294C56.6818 11.3106 56.7962 11.3355 56.9055 11.3686V13.7102C56.7696 13.6638 56.6023 13.629 56.4034 13.6058C56.2045 13.5826 56.0339 13.571 55.8913 13.571C55.6229 13.571 55.3809 13.6323 55.1655 13.755C54.9534 13.8743 54.786 14.0433 54.6634 14.2621C54.5407 14.4775 54.4794 14.7311 54.4794 15.0227V19H51.7351Z" fill="#40A283"/>
</svg>
