<svg width="21" height="24" viewBox="0 0 21 24" fill="none" xmlns="http://www.w3.org/2000/svg">
<path d="M2.92627 18.4448V21.9881C2.92627 22.1154 3.02085 22.2186 3.13754 22.2186H17.8622C17.9788 22.2186 18.0734 22.1154 18.0734 21.9881V18.4448H2.92627Z" fill="#FE9901"/>
<path d="M4.88013 21.9881V18.4895H2.92627V21.9881C2.92627 22.1154 3.02085 22.2186 3.13754 22.2186H5.0914C4.97471 22.2186 4.88013 22.1154 4.88013 21.9881Z" fill="#FB8801"/>
<path d="M4.81745 7.66842C4.8727 7.69312 4.90277 7.75863 4.89095 7.82248L4.20952 11.4992L7.22478 13.9338L8.46116 10.5915L5.96909 7.51119C5.92918 7.46184 5.92496 7.38779 5.96199 7.33579C6.16088 7.05672 6.23081 6.67407 6.10805 6.30828C5.94965 5.83637 5.49987 5.54535 5.04448 5.62133C4.45652 5.71945 4.09254 6.34663 4.24213 6.95569C4.32449 7.291 4.54417 7.54609 4.81745 7.66842Z" fill="#FEE45A"/>
<path d="M4.81741 7.66852C4.87266 7.69322 4.90273 7.75873 4.89091 7.82258L4.21846 11.4509L4.79666 11.9177L5.60926 7.53344C5.62107 7.46959 5.59101 7.40409 5.53576 7.37939C5.26247 7.2571 5.04279 7.00197 4.96043 6.6667C4.8638 6.27326 4.98168 5.87249 5.23561 5.61141C5.17253 5.60805 5.10862 5.61073 5.04448 5.62143C4.45652 5.71955 4.09254 6.34673 4.24213 6.95579C4.32445 7.29111 4.54413 7.54619 4.81741 7.66852Z" fill="#FEDF30"/>
<path d="M15.0314 7.51017L12.5386 10.5914L13.7749 13.9338L16.7902 11.4991L16.109 7.82383C16.0971 7.7594 16.1272 7.69304 16.183 7.66803C16.4721 7.5384 16.701 7.26009 16.7707 6.89552C16.871 6.37093 16.5902 5.83642 16.1245 5.66594C15.5835 5.4679 15.0098 5.81007 14.8644 6.40221C14.7817 6.73882 14.856 7.08094 15.0381 7.33625C15.0749 7.38784 15.071 7.46122 15.0314 7.51017Z" fill="#FEDF30"/>
<path d="M15.0318 7.51019L12.5693 10.554L12.8633 11.3487L15.842 7.66688C15.8816 7.61793 15.8855 7.54451 15.8487 7.493C15.6665 7.23769 15.5923 6.89558 15.675 6.55897C15.7692 6.17551 16.0431 5.89711 16.3713 5.80212C16.2968 5.74516 16.2144 5.69871 16.1249 5.666C15.5839 5.46797 15.0103 5.81013 14.8648 6.40227C14.7821 6.73888 14.8564 7.081 15.0385 7.33631C15.0753 7.38786 15.0714 7.46124 15.0318 7.51019Z" fill="#FED402"/>
<path d="M19.9152 7.86812C19.4618 7.9194 19.095 8.31798 19.0459 8.81245C19.0269 9.00368 19.0544 9.18602 19.1174 9.3479C19.1552 9.44504 19.1256 9.5578 19.0479 9.62058L13.7593 13.8909L15.4604 18.4894H18.0735L19.7486 10.179C19.7709 10.0686 19.8631 9.99253 19.9665 9.99871C20.0275 10.0024 20.09 9.99983 20.1537 9.9903C20.6069 9.92246 20.9633 9.5105 20.9972 9.01281C21.0425 8.34733 20.5287 7.79872 19.9152 7.86812Z" fill="#FED402"/>
<path d="M19.9153 7.86811C19.4619 7.91939 19.0951 8.31797 19.046 8.81244C19.027 9.00372 19.0545 9.18601 19.1175 9.34794C19.1553 9.44508 19.1257 9.55784 19.048 9.62061L13.7935 13.8634L14.0316 14.5072L19.6669 9.957C19.7446 9.89422 19.7742 9.78147 19.7364 9.68433C19.6734 9.5224 19.6459 9.34011 19.6648 9.14883C19.7139 8.65436 20.0807 8.25582 20.5342 8.2045C20.6039 8.19662 20.6723 8.19707 20.7387 8.20441C20.538 7.96838 20.2407 7.83133 19.9153 7.86811Z" fill="#FAC600"/>
<path d="M5.53957 18.4897L7.24065 13.8912L1.95205 9.62085C1.87429 9.55808 1.84476 9.44532 1.88253 9.34818C1.94553 9.18625 1.97305 9.00396 1.95406 8.81273C1.90501 8.31821 1.53812 7.91963 1.08461 7.86835C0.470978 7.799 -0.0428246 8.34792 0.00282577 9.01372C0.0369098 9.51132 0.393418 9.92297 0.846599 9.99062C0.910133 10.0001 0.972517 10.0026 1.03343 9.99899C1.13687 9.99281 1.22907 10.0689 1.2513 10.1793L2.92642 18.4897H5.53957Z" fill="#FED402"/>
<path d="M1.77326 9.66517C1.75103 9.55483 1.65879 9.47872 1.55539 9.4849C1.49448 9.48852 1.43209 9.48601 1.36856 9.47653C0.91538 9.40887 0.558872 8.99718 0.524788 8.49963C0.510761 8.29505 0.549726 8.10162 0.628025 7.93365C0.238827 8.0972 -0.0307684 8.52352 0.00282339 9.01351C0.0369074 9.51112 0.393456 9.92276 0.846597 9.99046C0.91013 9.99995 0.972515 10.0025 1.03342 9.99883C1.13686 9.99265 1.22907 10.0687 1.2513 10.1791L2.92642 18.4896H3.61351L1.77326 9.66517Z" fill="#FAC600"/>
<path d="M15.5045 18.4895L11.1559 6.73402C11.1242 6.64829 11.1425 6.55016 11.2024 6.48479L12.1237 5.4797C12.2063 5.38968 12.2063 5.24376 12.1237 5.15378L10.6492 3.54518C10.5667 3.45515 10.4329 3.45515 10.3504 3.54518L8.87583 5.15378C8.79331 5.24381 8.79331 5.38972 8.87583 5.4797L9.79716 6.48479C9.85709 6.55016 9.87542 6.64829 9.84368 6.73402L5.49512 18.4895H15.5045Z" fill="#FEE45A"/>
<path d="M10.7925 6.48484L9.87116 5.47975C9.78863 5.38972 9.78863 5.24381 9.87116 5.15378L10.9974 3.9251L10.6492 3.54518C10.5667 3.45515 10.4329 3.45515 10.3504 3.54518L8.87587 5.15378C8.79335 5.24381 8.79335 5.38972 8.87587 5.47975L9.7972 6.48484C9.85713 6.55021 9.87546 6.64833 9.84372 6.73406L5.49512 18.4895H6.49044L10.839 6.73402C10.8707 6.64829 10.8524 6.55021 10.7925 6.48484Z" fill="#FEDF30"/>
<path d="M10.3808 12.1226L9.15374 13.9794C9.11707 14.0348 9.1167 14.1096 9.15279 14.1655L10.3798 16.0654C10.4384 16.1561 10.5616 16.1561 10.6201 16.0654L11.8472 14.1655C11.8832 14.1096 11.8829 14.0348 11.8462 13.9794L10.6192 12.1226C10.5606 12.0338 10.4394 12.0338 10.3808 12.1226Z" fill="#925CB4"/>
<path d="M10.1795 14.1654C10.1434 14.1095 10.1438 14.0348 10.1804 13.9793L11.0133 12.7189L10.6192 12.1225C10.5606 12.0338 10.4394 12.0338 10.3808 12.1225L9.15374 13.9793C9.11707 14.0348 9.1167 14.1095 9.15279 14.1654L10.3798 16.0654C10.4384 16.156 10.5616 16.156 10.6201 16.0654L11.0133 15.4565L10.1795 14.1654Z" fill="#814BA2"/>
<path d="M4.96289 20.6264C5.13278 20.6264 5.27051 20.4761 5.27051 20.2908C5.27051 20.1054 5.13278 19.9552 4.96289 19.9552C4.793 19.9552 4.65527 20.1054 4.65527 20.2908C4.65527 20.4761 4.793 20.6264 4.96289 20.6264Z" fill="#FED402"/>
<path d="M7.17773 20.6264C7.34763 20.6264 7.48535 20.4761 7.48535 20.2908C7.48535 20.1054 7.34763 19.9552 7.17773 19.9552C7.00784 19.9552 6.87012 20.1054 6.87012 20.2908C6.87012 20.4761 7.00784 20.6264 7.17773 20.6264Z" fill="#FED402"/>
<path d="M9.39258 20.6264C9.56247 20.6264 9.7002 20.4761 9.7002 20.2908C9.7002 20.1054 9.56247 19.9552 9.39258 19.9552C9.22269 19.9552 9.08496 20.1054 9.08496 20.2908C9.08496 20.4761 9.22269 20.6264 9.39258 20.6264Z" fill="#FED402"/>
<path d="M11.6074 20.6264C11.7773 20.6264 11.915 20.4761 11.915 20.2908C11.915 20.1054 11.7773 19.9552 11.6074 19.9552C11.4375 19.9552 11.2998 20.1054 11.2998 20.2908C11.2998 20.4761 11.4375 20.6264 11.6074 20.6264Z" fill="#FED402"/>
<path d="M13.8223 20.6264C13.9922 20.6264 14.1299 20.4761 14.1299 20.2908C14.1299 20.1054 13.9922 19.9552 13.8223 19.9552C13.6524 19.9552 13.5146 20.1054 13.5146 20.2908C13.5146 20.4761 13.6524 20.6264 13.8223 20.6264Z" fill="#FED402"/>
<path d="M16.0371 20.6264C16.207 20.6264 16.3447 20.4761 16.3447 20.2908C16.3447 20.1054 16.207 19.9552 16.0371 19.9552C15.8672 19.9552 15.7295 20.1054 15.7295 20.2908C15.7295 20.4761 15.8672 20.6264 16.0371 20.6264Z" fill="#FED402"/>
<path d="M7.15983 1.33404C7.37668 2.01295 7.62966 2.28893 8.25199 2.52549C8.37172 2.571 8.37172 2.75521 8.25199 2.80071C7.62966 3.03728 7.37668 3.31326 7.15983 3.99217C7.11812 4.12277 6.94926 4.12277 6.90754 3.99217C6.69069 3.31326 6.43771 3.03728 5.81538 2.80071C5.69565 2.75521 5.69565 2.571 5.81538 2.52549C6.43771 2.28893 6.69069 2.01295 6.90754 1.33404C6.94926 1.20343 7.11812 1.20343 7.15983 1.33404Z" fill="#FE9901"/>
<path d="M6.38005 2.22076C6.23239 2.34104 6.05007 2.43612 5.81489 2.52552C5.69517 2.57102 5.69517 2.75524 5.81489 2.80074C6.43722 3.0373 6.69021 3.31329 6.90706 3.99219C6.94877 4.1228 7.11763 4.1228 7.15934 3.99219C7.24027 3.73885 7.32624 3.54175 7.43452 3.38174C7.22283 2.72803 6.97321 2.45245 6.38005 2.22076Z" fill="#FB8801"/>
<path d="M14.1349 2.57861C14.3518 3.25751 14.6048 3.5335 15.2271 3.77006C15.3468 3.81556 15.3468 3.99978 15.2271 4.04528C14.6048 4.28185 14.3518 4.55783 14.1349 5.23673C14.0932 5.36734 13.9244 5.36734 13.8826 5.23673C13.6658 4.55783 13.4128 4.28185 12.7905 4.04528C12.6708 3.99978 12.6708 3.81556 12.7905 3.77006C13.4128 3.5335 13.6658 3.25751 13.8826 2.57861C13.9244 2.448 14.0932 2.448 14.1349 2.57861Z" fill="#FE9901"/>
<path d="M13.3761 3.44745C13.2248 3.57604 13.0369 3.67641 12.7905 3.77006C12.6708 3.81556 12.6708 3.99977 12.7905 4.04528C13.4128 4.28184 13.6658 4.55782 13.8826 5.23673C13.9244 5.36734 14.0932 5.36734 14.1349 5.23673C14.2191 4.97336 14.3089 4.77116 14.4234 4.60785C14.2124 3.95521 13.9642 3.67878 13.3761 3.44745Z" fill="#FB8801"/>
</svg>
