<svg width="31" height="31" viewBox="0 0 31 31" fill="none" xmlns="http://www.w3.org/2000/svg">
<circle cx="15.5" cy="15.5" r="15.5" fill="#D9D9D9"/>
<path d="M17.3704 15.8448C16.7425 15.4975 16.075 15.2328 15.4141 14.9582C15.0308 14.7994 14.664 14.6141 14.3402 14.356C13.7024 13.8465 13.8246 13.0194 14.5715 12.6919C14.783 12.5993 15.0044 12.5695 15.2291 12.5563C16.0949 12.5099 16.9177 12.6687 17.7009 13.0459C18.0908 13.2345 18.2197 13.1749 18.3519 12.768C18.4906 12.3379 18.6063 11.9012 18.7352 11.4678C18.8211 11.1766 18.7154 10.9847 18.4411 10.8623C17.9388 10.6407 17.4233 10.4819 16.8813 10.3958C16.1742 10.2867 16.1742 10.2834 16.1709 9.57204C16.1676 8.56959 16.1676 8.56959 15.163 8.56959C15.0176 8.56959 14.8722 8.56628 14.7268 8.56959C14.2575 8.58282 14.1782 8.66553 14.165 9.13864C14.1584 9.35038 14.165 9.56212 14.1617 9.77717C14.1584 10.4058 14.1551 10.3958 13.5537 10.6142C12.0997 11.1436 11.2008 12.1361 11.105 13.7241C11.0191 15.1302 11.7527 16.0797 12.906 16.7712C13.6165 17.198 14.4029 17.4494 15.1564 17.7836C15.4505 17.9126 15.7314 18.0615 15.9759 18.2666C16.6996 18.8655 16.5674 19.8613 15.7082 20.2385C15.2489 20.4403 14.7631 20.4899 14.2641 20.427C13.4942 20.3311 12.7573 20.1293 12.0633 19.7687C11.6569 19.5569 11.5379 19.6132 11.3991 20.0532C11.2802 20.4337 11.1744 20.8174 11.0687 21.2012C10.9266 21.7173 10.9794 21.8397 11.4718 22.0813C12.0997 22.3856 12.7705 22.5411 13.4545 22.6503C13.9899 22.7363 14.0064 22.7595 14.013 23.3153C14.0163 23.5667 14.0163 23.8215 14.0196 24.0729C14.0229 24.3905 14.1749 24.5758 14.5021 24.5824C14.8722 24.5891 15.2456 24.5891 15.6157 24.5791C15.9197 24.5725 16.075 24.4071 16.075 24.0994C16.075 23.7553 16.0916 23.4079 16.0783 23.0639C16.0618 22.7132 16.2138 22.5345 16.5509 22.4419C17.3274 22.2301 17.9884 21.8133 18.4973 21.1913C19.9116 19.4709 19.373 16.9532 17.3704 15.8448Z" fill="#211D1A"/>
</svg>
