<svg id="Layer_1" height="512" viewBox="0 0 512 512" width="512" xmlns="http://www.w3.org/2000/svg" data-name="Layer 1"><path d="m256 0c141.385 0 256 114.615 256 256s-114.615 256-256 256-256-114.615-256-256 114.615-256 256-256zm116.65 96.024h-1.068a3.114 3.114 0 0 0 -1.677.87l-10.461 10.459-10.456-10.459a3.134 3.134 0 0 0 -1.679-.87h-1.066a3.112 3.112 0 0 0 -1.675.87l-10.462 10.459-10.456-10.459a3.12 3.12 0 0 0 -1.678-.87h-1.072a3.133 3.133 0 0 0 -1.68.87l-10.455 10.459-10.458-10.459a3.1 3.1 0 0 0 -1.673-.87h-1.067a3.13 3.13 0 0 0 -1.68.87l-10.456 10.459-10.462-10.459a3.1 3.1 0 0 0 -1.675-.87h-1.067a3.117 3.117 0 0 0 -1.678.87l-12.667 12.667a3.109 3.109 0 0 0 -.914 2.212v38h-14.968v-15.4a15.093 15.093 0 0 0 -15.076-15.077h-62.75a15.093 15.093 0 0 0 -15.074 15.072v15.4h-35.718a8.517 8.517 0 0 0 -8.507 8.5v218.724a8.516 8.516 0 0 0 8.507 8.5h35.718v15.4a15.093 15.093 0 0 0 15.076 15.077h62.75a15.093 15.093 0 0 0 15.074-15.069v-15.4h160.618a8.512 8.512 0 0 0 8.507-8.5v-218.725a8.513 8.513 0 0 0 -8.507-8.5h-12.711v-38a3.123 3.123 0 0 0 -.911-2.212l-12.671-12.669a3.105 3.105 0 0 0 -1.675-.87zm-107.686 255.112h22.112a3.125 3.125 0 0 0 3.125-3.126v-22.11a3.124 3.124 0 0 0 -3.125-3.125h-22.112a3.123 3.123 0 0 0 -3.126 3.125v22.11a3.124 3.124 0 0 0 3.126 3.126zm0-45.418h22.112a3.127 3.127 0 0 0 3.125-3.126v-22.111a3.127 3.127 0 0 0 -3.125-3.126h-22.112a3.126 3.126 0 0 0 -3.126 3.126v22.111a3.126 3.126 0 0 0 3.126 3.126zm0-45.42h22.112a3.124 3.124 0 0 0 3.125-3.123v-22.112a3.126 3.126 0 0 0 -3.125-3.125h-22.112a3.125 3.125 0 0 0 -3.126 3.125v22.112a3.123 3.123 0 0 0 3.126 3.123zm112.947 62.478h-22.111a3.124 3.124 0 0 0 -3.125 3.125v22.109a3.125 3.125 0 0 0 3.125 3.126h22.112a3.126 3.126 0 0 0 3.128-3.126v-22.11a3.126 3.126 0 0 0 -3.128-3.125zm0-45.421h-22.111a3.127 3.127 0 0 0 -3.125 3.126v22.111a3.127 3.127 0 0 0 3.125 3.126h22.112a3.128 3.128 0 0 0 3.128-3.126v-22.111a3.128 3.128 0 0 0 -3.128-3.126zm0-45.417h-22.111a3.126 3.126 0 0 0 -3.125 3.125v22.112a3.124 3.124 0 0 0 3.125 3.125h22.112a3.126 3.126 0 0 0 3.128-3.123v-22.114a3.127 3.127 0 0 0 -3.128-3.125zm-45.418 90.838h-22.111a3.125 3.125 0 0 0 -3.126 3.125v22.109a3.126 3.126 0 0 0 3.126 3.126h22.111a3.126 3.126 0 0 0 3.126-3.126v-22.11a3.125 3.125 0 0 0 -3.126-3.125zm0-45.421h-22.111a3.128 3.128 0 0 0 -3.126 3.126v22.111a3.128 3.128 0 0 0 3.126 3.126h22.111a3.128 3.128 0 0 0 3.126-3.126v-22.111a3.128 3.128 0 0 0 -3.126-3.126zm0-45.417h-22.111a3.127 3.127 0 0 0 -3.126 3.125v22.112a3.125 3.125 0 0 0 3.126 3.123h22.111a3.125 3.125 0 0 0 3.126-3.123v-22.112a3.127 3.127 0 0 0 -3.126-3.125zm-67.529-20.338h112.947a3.125 3.125 0 0 0 3.128-3.122v-27.492a3.126 3.126 0 0 0 -3.128-3.126h-112.947a3.124 3.124 0 0 0 -3.126 3.126v27.487a3.123 3.123 0 0 0 3.126 3.122zm-155.841-53.32v218.712a2.26 2.26 0 0 0 2.259 2.253h35.718v-223.222h-35.718a2.26 2.26 0 0 0 -2.259 2.252zm53.052-32.735a8.835 8.835 0 0 0 -8.825 8.828v29.144h80.4v-29.149a8.835 8.835 0 0 0 -8.825-8.828zm238.443 30.483h-160.618v223.217h160.618a2.257 2.257 0 0 0 2.256-2.253v-218.717a2.257 2.257 0 0 0 -2.256-2.252zm-139.4-42.956v36.705h120.437v-36.7l-9.541-9.545-10.456 10.459a3.125 3.125 0 0 1 -4.42 0l-10.462-10.459-10.455 10.459a3.132 3.132 0 0 1 -4.426 0l-10.456-10.459-10.459 10.449a3.128 3.128 0 0 1 -4.423 0l-10.457-10.459-10.461 10.459a3.121 3.121 0 0 1 -4.417 0l-10.459-10.459-9.542 9.545zm-36.293 296.656a8.835 8.835 0 0 0 8.825-8.829v-29.144h-80.4v29.145a8.835 8.835 0 0 0 8.825 8.829zm8.825-44.228v-195.737h-80.4v195.737z" fill-rule="evenodd"/></svg>