<svg width="20" height="18" viewBox="0 0 20 18" fill="none" xmlns="http://www.w3.org/2000/svg">
<path d="M17.9045 15.195H15.6912C15.5876 15.195 15.4882 15.1539 15.415 15.0806C15.3417 15.0074 15.3005 14.908 15.3005 14.8044C15.3005 14.7008 15.3417 14.6015 15.415 14.5282C15.4882 14.4549 15.5876 14.4138 15.6912 14.4138H17.9045C18.1003 14.4136 18.288 14.3357 18.4265 14.1972C18.5649 14.0587 18.6428 13.871 18.643 13.6752V6.89973C18.6428 6.70391 18.5649 6.51618 18.4265 6.37771C18.288 6.23925 18.1003 6.16136 17.9045 6.16113H2.09508C1.89925 6.16135 1.71151 6.23923 1.57304 6.3777C1.43457 6.51616 1.35667 6.7039 1.35645 6.89973V13.6752C1.35667 13.871 1.43457 14.0588 1.57304 14.1972C1.71151 14.3357 1.89925 14.4136 2.09508 14.4138H4.30836C4.41196 14.4138 4.51132 14.4549 4.58457 14.5282C4.65783 14.6015 4.69898 14.7008 4.69898 14.8044C4.69898 14.908 4.65783 15.0074 4.58457 15.0806C4.51132 15.1539 4.41196 15.195 4.30836 15.195H2.09508C1.69213 15.1946 1.30581 15.0343 1.02087 14.7494C0.735941 14.4645 0.575661 14.0781 0.575195 13.6752V6.89973C0.575661 6.49677 0.735941 6.11046 1.02087 5.82553C1.30581 5.54061 1.69213 5.38034 2.09508 5.37988H17.9045C18.3074 5.38033 18.6937 5.54059 18.9787 5.82552C19.2636 6.11045 19.4239 6.49677 19.4243 6.89973V13.6752C19.4239 14.0781 19.2636 14.4645 18.9787 14.7494C18.6937 15.0343 18.3074 15.1946 17.9045 15.195Z" fill="black"/>
<path d="M4.30859 6.16102C4.20499 6.16102 4.10564 6.11986 4.03238 6.0466C3.95912 5.97335 3.91797 5.87399 3.91797 5.77039V2.47301C3.91842 2.07004 4.0787 1.68371 4.36365 1.39878C4.64859 1.11384 5.03493 0.95357 5.43789 0.953125H13.207C13.3106 0.953125 13.41 0.99428 13.4832 1.06754C13.5565 1.14079 13.5977 1.24015 13.5977 1.34375C13.5977 1.44735 13.5565 1.54671 13.4832 1.61996C13.41 1.69322 13.3106 1.73438 13.207 1.73438H5.43789C5.24206 1.73459 5.05431 1.81248 4.91584 1.95096C4.77736 2.08943 4.69947 2.27718 4.69926 2.47301V5.77039C4.69926 5.87399 4.6581 5.97335 4.58485 6.0466C4.51159 6.11986 4.41219 6.16102 4.30859 6.16102ZM15.6914 6.16102C15.5878 6.16102 15.4884 6.11986 15.4152 6.0466C15.3419 5.97335 15.3008 5.87399 15.3008 5.77039V3.82809C15.3008 3.72449 15.3419 3.62513 15.4152 3.55187C15.4884 3.47862 15.5878 3.43746 15.6914 3.43746C15.795 3.43746 15.8944 3.47862 15.9676 3.55187C16.0409 3.62513 16.082 3.72449 16.082 3.82809V5.77039C16.082 5.87399 16.0409 5.97335 15.9676 6.0466C15.8944 6.11986 15.795 6.16102 15.6914 6.16102ZM14.5621 17.0469H5.43789C5.03494 17.0464 4.64861 16.8862 4.36368 16.6012C4.07874 16.3163 3.91846 15.93 3.91801 15.527V11.1907C3.91801 11.0871 3.95916 10.9878 4.03242 10.9145C4.10568 10.8413 4.20503 10.8001 4.30863 10.8001C4.41223 10.8001 4.51159 10.8413 4.58485 10.9145C4.6581 10.9878 4.69926 11.0871 4.69926 11.1907V15.527C4.69949 15.7229 4.77738 15.9106 4.91585 16.0491C5.05432 16.1875 5.24207 16.2654 5.43789 16.2656H14.5621C14.758 16.2654 14.9457 16.1875 15.0842 16.049C15.2226 15.9106 15.3005 15.7228 15.3007 15.527V11.1907C15.3007 11.0871 15.3419 10.9878 15.4152 10.9145C15.4884 10.8413 15.5878 10.8001 15.6914 10.8001C15.795 10.8001 15.8943 10.8413 15.9676 10.9145C16.0408 10.9878 16.082 11.0871 16.082 11.1907V15.527C16.0815 15.93 15.9213 16.3163 15.6363 16.6012C15.3514 16.8861 14.9651 17.0464 14.5621 17.0469Z" fill="black"/>
<path d="M15.6914 4.21871H14.1104C13.7674 4.21833 13.4384 4.08187 13.1958 3.83928C12.9532 3.59668 12.8168 3.26777 12.8164 2.92469V1.34375C12.8164 1.24015 12.8576 1.14079 12.9308 1.06754C13.0041 0.99428 13.1034 0.953125 13.207 0.953125C13.3106 0.953125 13.41 0.99428 13.4832 1.06754C13.5565 1.14079 13.5977 1.24015 13.5977 1.34375V2.92469C13.5978 3.06064 13.6519 3.19097 13.748 3.2871C13.8441 3.38323 13.9745 3.43731 14.1104 3.43746H15.6913C15.7949 3.43746 15.8943 3.47862 15.9675 3.55187C16.0408 3.62513 16.082 3.72449 16.082 3.82809C16.082 3.93169 16.0408 4.03104 15.9675 4.1043C15.8943 4.17756 15.7949 4.21871 15.6913 4.21871H15.6914Z" fill="black"/>
<path d="M15.6912 4.21872C15.6399 4.21879 15.5891 4.20871 15.5417 4.18907C15.4943 4.16942 15.4512 4.14061 15.415 4.10427L12.9306 1.61997C12.8574 1.54671 12.8162 1.44735 12.8162 1.34375C12.8162 1.24014 12.8574 1.14079 12.9306 1.06753C13.0039 0.994274 13.1033 0.953121 13.2069 0.953125C13.3105 0.953129 13.4098 0.994288 13.4831 1.06755L15.9674 3.55185C16.022 3.60647 16.0592 3.67607 16.0743 3.75185C16.0894 3.82763 16.0817 3.90617 16.0521 3.97756C16.0225 4.04894 15.9725 4.10995 15.9082 4.15288C15.844 4.19581 15.7685 4.21872 15.6912 4.21872ZM16.7301 11.5814H3.26953C3.16593 11.5814 3.06657 11.5402 2.99332 11.467C2.92006 11.3937 2.87891 11.2944 2.87891 11.1908C2.87891 11.0872 2.92006 10.9878 2.99332 10.9145C3.06657 10.8413 3.16593 10.8001 3.26953 10.8001H16.7301C16.8337 10.8001 16.933 10.8413 17.0063 10.9145C17.0795 10.9878 17.1207 11.0872 17.1207 11.1908C17.1207 11.2944 17.0795 11.3937 17.0063 11.467C16.933 11.5402 16.8337 11.5814 16.7301 11.5814ZM13.7567 13.4559H6.24293C6.13933 13.4559 6.03997 13.4147 5.96672 13.3415C5.89346 13.2682 5.8523 13.1688 5.8523 13.0652C5.8523 12.9616 5.89346 12.8623 5.96672 12.789C6.03997 12.7158 6.13933 12.6746 6.24293 12.6746H13.7567C13.8603 12.6746 13.9596 12.7158 14.0329 12.789C14.1061 12.8623 14.1473 12.9616 14.1473 13.0652C14.1473 13.1688 14.1061 13.2682 14.0329 13.3415C13.9596 13.4147 13.8603 13.4559 13.7567 13.4559ZM13.7567 15.1724H6.24293C6.13933 15.1724 6.03997 15.1312 5.96672 15.0579C5.89346 14.9847 5.8523 14.8853 5.8523 14.7817C5.8523 14.6781 5.89346 14.5788 5.96672 14.5055C6.03997 14.4323 6.13933 14.3911 6.24293 14.3911H13.7567C13.8603 14.3911 13.9596 14.4323 14.0329 14.5055C14.1061 14.5788 14.1473 14.6781 14.1473 14.7817C14.1473 14.8853 14.1061 14.9847 14.0329 15.0579C13.9596 15.1312 13.8603 15.1724 13.7567 15.1724ZM16.5043 9.41321C16.2841 9.41323 16.0688 9.34794 15.8857 9.22561C15.7026 9.10328 15.5599 8.9294 15.4756 8.72596C15.3913 8.52252 15.3693 8.29866 15.4122 8.08268C15.4552 7.8667 15.5612 7.66832 15.7169 7.5126C15.8726 7.35689 16.071 7.25085 16.287 7.20789C16.5029 7.16493 16.7268 7.18698 16.9303 7.27125C17.1337 7.35552 17.3076 7.49823 17.4299 7.68132C17.5523 7.86442 17.6175 8.07969 17.6175 8.29989C17.6172 8.59505 17.4998 8.87803 17.2911 9.08674C17.0824 9.29545 16.7994 9.41286 16.5043 9.41321ZM16.5043 7.96778C16.4386 7.96777 16.3744 7.98723 16.3197 8.02372C16.2651 8.0602 16.2225 8.11206 16.1974 8.17275C16.1722 8.23343 16.1656 8.30021 16.1784 8.36464C16.1912 8.42906 16.2229 8.48825 16.2693 8.5347C16.3158 8.58116 16.3749 8.61279 16.4394 8.62562C16.5038 8.63844 16.5706 8.63186 16.6313 8.60673C16.6919 8.5816 16.7438 8.53903 16.7803 8.48441C16.8168 8.42979 16.8363 8.36558 16.8363 8.29989C16.8362 8.21185 16.8012 8.12745 16.7389 8.06519C16.6767 8.00293 16.5923 7.9679 16.5043 7.96778Z" fill="black"/>
</svg>
