<svg width="26" height="17" viewBox="0 0 26 17" fill="none" xmlns="http://www.w3.org/2000/svg">
<path d="M25.9473 5.6667H0V0.447388C1.3438e-05 0.328738 0.0471532 0.214951 0.131052 0.131052C0.214951 0.0471531 0.328738 1.3438e-05 0.447389 0H25.5C25.6186 1.3438e-05 25.7324 0.0471531 25.8163 0.131052C25.9002 0.214951 25.9474 0.328738 25.9474 0.447388L25.9473 5.6667Z" fill="#FAB446"/>
<path d="M25.4999 17H0.447389C0.328738 17 0.214951 16.9528 0.131052 16.8689C0.0471532 16.785 1.3438e-05 16.6713 0 16.5526L0 11.3333H25.9473V16.5526C25.9473 16.6713 25.9002 16.7851 25.8163 16.869C25.7324 16.9529 25.6186 17 25.4999 17Z" fill="#73AF00"/>
<path d="M0 5.66659H25.9473V11.3329H0V5.66659Z" fill="#F5F5F5"/>
<path d="M12.9734 10.9046C11.6475 10.9046 10.5688 9.82597 10.5688 8.50002C10.5688 7.17407 11.6475 6.09543 12.9734 6.09543C14.2994 6.09543 15.378 7.17407 15.378 8.50002C15.378 9.82597 14.2994 10.9046 12.9734 10.9046ZM12.9734 6.54277C11.8941 6.54277 11.0162 7.42067 11.0162 8.50002C11.0162 9.57937 11.8941 10.4573 12.9734 10.4573C14.0528 10.4573 14.9307 9.57937 14.9307 8.50002C14.9307 7.42067 14.0528 6.54277 12.9734 6.54277Z" fill="#41479B"/>
<path d="M12.9738 8.77262C13.1243 8.77262 13.2464 8.65058 13.2464 8.50002C13.2464 8.34947 13.1243 8.22742 12.9738 8.22742C12.8232 8.22742 12.7012 8.34947 12.7012 8.50002C12.7012 8.65058 12.8232 8.77262 12.9738 8.77262Z" fill="#41479B"/>
<path d="M12.9739 8.54092L12.2811 8.61085L10.793 8.54092V8.45912L12.2811 8.38918L12.9739 8.45912V8.54092ZM12.9739 8.54092L13.6666 8.61085L15.1548 8.54092V8.45912L13.6666 8.38918L12.9739 8.45912V8.54092Z" fill="#41479B"/>
<path d="M12.9327 8.50002L12.8628 7.80724L12.9327 6.31912H13.0145L13.0845 7.80724L13.0145 8.50002H12.9327ZM12.9327 8.50002L12.8628 9.19279L12.9327 10.6809H13.0145L13.0845 9.19279L13.0145 8.50002H12.9327Z" fill="#41479B"/>
<path d="M12.945 8.52891L12.4057 8.08857L11.4028 6.98682L11.4607 6.92899L12.5624 7.93182L13.0028 8.47114L12.945 8.52891Z" fill="#41479B"/>
<path d="M12.9448 8.5289L13.3852 9.06822L14.4869 10.0711L14.5447 10.0132L13.5419 8.91148L13.0026 8.47113L12.9448 8.5289Z" fill="#41479B"/>
<path d="M12.945 8.47114L13.3853 7.93182L14.4871 6.92899L14.5449 6.98682L13.5421 8.08857L13.0028 8.52891L12.945 8.47114ZM12.945 8.47114L12.4057 8.91148L11.4028 10.0132L11.4607 10.0711L12.5624 9.06823L13.0028 8.52891L12.945 8.47114Z" fill="#41479B"/>
<path d="M12.9896 8.53782L12.3762 8.86754L10.9747 9.3724L10.9434 9.29684L12.2915 8.66275L12.9582 8.46221L12.9896 8.53782Z" fill="#41479B"/>
<path d="M12.9893 8.53783L13.6561 8.33729L15.0042 7.7032L14.9729 7.62764L13.5713 8.1325L12.958 8.46221L12.9893 8.53783Z" fill="#41479B"/>
<path d="M12.9356 8.51569L12.6059 7.90238L12.1011 6.50082L12.1766 6.4695L12.8107 7.8176L13.0113 8.48437L12.9356 8.51569Z" fill="#41479B"/>
<path d="M12.936 8.51568L13.1366 9.18246L13.7707 10.5306L13.8462 10.4992L13.3414 9.09767L13.0116 8.48436L12.936 8.51568Z" fill="#41479B"/>
<path d="M12.9582 8.53783L12.2915 8.33729L10.9434 7.7032L10.9747 7.62764L12.3762 8.1325L12.9896 8.46221L12.9582 8.53783ZM12.9582 8.53783L13.5715 8.86754L14.9731 9.3724L15.0044 9.29684L13.6563 8.66275L12.9896 8.46221L12.9582 8.53783Z" fill="#41479B"/>
<path d="M12.936 8.48437L13.1366 7.8176L13.7707 6.4695L13.8462 6.50082L13.3414 7.90238L13.0116 8.51569L12.936 8.48437Z" fill="#41479B"/>
<path d="M12.9356 8.48436L12.6059 9.09767L12.1011 10.4992L12.1766 10.5306L12.8107 9.18246L13.0113 8.51568L12.9356 8.48436Z" fill="#41479B"/>
<path d="M12.9737 8.86774C13.1768 8.86774 13.3414 8.70311 13.3414 8.50002C13.3414 8.29693 13.1768 8.13229 12.9737 8.13229C12.7706 8.13229 12.606 8.29693 12.606 8.50002C12.606 8.70311 12.7706 8.86774 12.9737 8.86774Z" fill="#F5F5F5"/>
<path d="M12.9734 8.72052C13.0952 8.72052 13.1939 8.6218 13.1939 8.50002C13.1939 8.37824 13.0952 8.27952 12.9734 8.27952C12.8517 8.27952 12.7529 8.37824 12.7529 8.50002C12.7529 8.6218 12.8517 8.72052 12.9734 8.72052Z" fill="#41479B"/>
</svg>
