<svg width="19" height="17" viewBox="0 0 19 17" fill="none" xmlns="http://www.w3.org/2000/svg">
<path d="M15.6056 0H4.22053C3.33493 0.00080372 2.48584 0.332217 1.85963 0.921503C1.23341 1.51079 0.881225 2.3098 0.880371 3.14318V13.8568C0.881225 14.6902 1.23341 15.4892 1.85963 16.0785C2.48584 16.6678 3.33493 16.9992 4.22053 17H15.6056C15.6314 17 15.6553 16.9933 15.6811 16.9927C15.6938 16.9958 15.7068 16.9982 15.7198 17C15.7615 16.9961 15.8028 16.9886 15.843 16.9775C16.6835 16.9225 17.4707 16.57 18.0463 15.9911C18.6219 15.4122 18.9432 14.6496 18.9458 13.8568V3.14318C18.9449 2.3098 18.5927 1.51079 17.9665 0.921503C17.3403 0.332217 16.4912 0.00080372 15.6056 0ZM4.22053 1.21429H15.6056C16.1491 1.21477 16.6702 1.41814 17.0544 1.77978C17.4387 2.14141 17.6549 2.63175 17.6554 3.14318V11.4058L14.7565 8.67789C14.6355 8.56407 14.4715 8.50013 14.3004 8.50013C14.1293 8.50013 13.9652 8.56407 13.8442 8.67789L11.1389 11.2236L5.53027 5.94575C5.40928 5.83193 5.24521 5.76799 5.07412 5.76799C4.90304 5.76799 4.73896 5.83193 4.61797 5.94575L2.17076 8.24864V3.14318C2.17127 2.63175 2.38739 2.14141 2.77169 1.77978C3.15598 1.41814 3.67706 1.21477 4.22053 1.21429ZM2.17076 13.8568V9.96564L5.07412 7.2335L14.1623 15.7857H4.22053C3.67706 15.7852 3.15598 15.5819 2.77169 15.2202C2.38739 14.8586 2.17127 14.3682 2.17076 13.8568ZM15.9521 15.7529L12.0512 12.0821L14.3004 9.96564L17.6554 13.1228V13.8568C17.6541 14.311 17.4826 14.7502 17.171 15.097C16.8594 15.4439 16.4278 15.6762 15.9521 15.7529Z" fill="#AA0596"/>
<path d="M14.1063 6.67859C14.5529 6.67859 14.9895 6.55396 15.3609 6.32046C15.7322 6.08696 16.0217 5.75508 16.1926 5.36679C16.3635 4.9785 16.4082 4.55123 16.3211 4.13902C16.234 3.72681 16.0189 3.34817 15.7031 3.05099C15.3873 2.7538 14.9849 2.55141 14.5469 2.46942C14.1088 2.38743 13.6548 2.42951 13.2422 2.59035C12.8295 2.75118 12.4768 3.02355 12.2287 3.373C11.9806 3.72246 11.8481 4.1333 11.8481 4.55359C11.8481 5.11717 12.0861 5.65768 12.5095 6.05619C12.933 6.45471 13.5074 6.67859 14.1063 6.67859ZM14.1063 3.64288C14.2977 3.64288 14.4848 3.69629 14.644 3.79636C14.8031 3.89643 14.9272 4.03866 15.0004 4.20507C15.0737 4.37149 15.0929 4.5546 15.0555 4.73126C15.0182 4.90792 14.926 5.0702 14.7906 5.19756C14.6553 5.32493 14.4829 5.41166 14.2951 5.44681C14.1074 5.48195 13.9128 5.46391 13.736 5.39498C13.5591 5.32605 13.408 5.20932 13.3016 5.05956C13.1953 4.90979 13.1385 4.73371 13.1385 4.55359C13.1385 4.31205 13.2405 4.08041 13.422 3.90962C13.6035 3.73883 13.8496 3.64288 14.1063 3.64288Z" fill="#AA0596"/>
</svg>
