<svg width="34" height="35" viewBox="0 0 34 35" fill="none" xmlns="http://www.w3.org/2000/svg">
<g clip-path="url(#clip0_948_1577)">
<path d="M7.7898 21.136L6.65604 25.6655L2.51215 25.7593C1.27374 23.3012 0.571289 20.4887 0.571289 17.5C0.571289 14.6099 1.22806 11.8845 2.39224 9.48474H2.39313L6.08235 10.2086L7.69845 14.133C7.3602 15.1883 7.17585 16.3212 7.17585 17.5C7.17597 18.7793 7.39252 20.0051 7.7898 21.136Z" fill="#FBBB00"/>
<path d="M32.858 14.2441C33.045 15.2984 33.1425 16.3872 33.1425 17.5C33.1425 18.7477 33.0199 19.9649 32.7864 21.1389C31.9936 25.1341 29.9221 28.6227 27.0524 31.0914L27.0515 31.0904L22.4048 30.8367L21.7471 26.4431C23.6513 25.248 25.1394 23.3778 25.9232 21.1389H17.2148V14.2441H26.0503H32.858Z" fill="#518EF8"/>
<path d="M27.0517 31.0905L27.0526 31.0914C24.2617 33.4921 20.7164 34.9286 16.8571 34.9286C10.6551 34.9286 5.2629 31.2188 2.51221 25.7594L7.78986 21.1361C9.16518 25.0642 12.706 27.8605 16.8571 27.8605C18.6413 27.8605 20.3129 27.3443 21.7472 26.4432L27.0517 31.0905Z" fill="#28B446"/>
<path d="M27.252 4.0838L21.9761 8.70618C20.4916 7.71316 18.7368 7.13951 16.8569 7.13951C12.6118 7.13951 9.00479 10.064 7.69837 14.133L2.39298 9.48475H2.39209C5.10252 3.89229 10.5627 0.0714111 16.8569 0.0714111C20.8084 0.0714111 24.4315 1.57776 27.252 4.0838Z" fill="#F14336"/>
</g>
<defs>
<clipPath id="clip0_948_1577">
<rect width="32.5714" height="34.8571" fill="white" transform="translate(0.571289 0.0714111)"/>
</clipPath>
</defs>
</svg>
