<?xml version="1.0" encoding="UTF-8"?>
<svg width="122px" height="122px" viewBox="0 0 122 122" version="1.1" xmlns="http://www.w3.org/2000/svg" xmlns:xlink="http://www.w3.org/1999/xlink">
    <title>close-circle-svgrepo-com</title>
    <g id="Page-1" stroke="none" stroke-width="1" fill="none" fill-rule="evenodd">
        <g id="close-circle-svgrepo-com" fill="#303D50" fill-rule="nonzero">
            <path d="M61,0 C27.3649519,0 0,27.3649519 0,61 C0,94.6350481 27.3649519,122 61,122 C94.6350481,122 122,94.6350481 122,61 C122,27.3649519 94.6350481,0 61,0 Z M92.1522218,82.6801216 C93.9172399,84.3569912 94.6337369,86.8593332 94.0237149,89.2162493 C93.413693,91.5731654 91.5731654,93.413693 89.2162493,94.0237149 C86.8593332,94.6337369 84.3569912,93.9172399 82.6801216,92.1522218 L60.616242,70.0925297 L38.5523624,92.1522218 C35.9181685,94.6548588 31.7692596,94.6017396 29.200002,92.032482 C26.6307444,89.4632244 26.5776253,85.3143155 29.0802622,82.6801216 L51.1399544,60.616242 L29.0802622,38.5523624 C26.5776253,35.9181685 26.6307444,31.7692596 29.200002,29.200002 C31.7692596,26.6307444 35.9181685,26.5776253 38.5523624,29.0802622 L60.616242,51.1399544 L82.6801216,29.0802622 C85.3143155,26.5776253 89.4632244,26.6307444 92.032482,29.200002 C94.6017396,31.7692596 94.6548588,35.9181685 92.1522218,38.5523624 L70.0925297,60.616242 L92.1522218,82.6801216 Z" id="Shape"></path>
        </g>
    </g>
</svg>