<svg width="277" height="130" viewBox="0 0 277 130" fill="none" xmlns="http://www.w3.org/2000/svg">
<path fill-rule="evenodd" clip-rule="evenodd" d="M270.155 0.510498H90.3779V51.9236C90.4123 45.7083 96.581 40.6786 104.186 40.6786C111.811 40.6786 117.993 45.7365 117.993 51.9758C117.993 58.2151 111.811 63.2731 104.186 63.2731C96.581 63.2731 90.4123 58.2433 90.3779 52.028V93.9726C90.3779 103.361 97.9891 110.973 107.378 110.973H270.155C273.469 110.973 276.155 108.286 276.155 104.973V6.5105C276.155 3.19679 273.469 0.510498 270.155 0.510498Z" fill="#3540BC"/>
<path d="M90.3779 60.7627H268.624V100.441C268.624 102.098 267.281 103.441 265.624 103.441H102.378C95.7505 103.441 90.3779 98.0687 90.3779 91.4412V60.7627Z" fill="#FBFCFF"/>
<path d="M148.12 51.9867C148.12 23.6024 120.583 0.510498 86.738 0.510498C52.8917 0.510498 25.3555 23.6026 25.3555 51.9867C25.3555 80.3707 52.8917 103.463 86.738 103.463C89.5837 103.463 92.4394 103.298 95.2469 102.973C108.283 111.254 117.907 115.787 123.872 116.45C124.079 116.472 124.288 116.484 124.493 116.484C125.433 116.485 126.36 116.252 127.188 115.806C128.017 115.36 128.721 114.715 129.238 113.928C130.418 112.137 130.495 109.865 129.444 108.01C129.395 107.922 124.792 99.5234 126.12 91.5012C140.124 81.7011 148.12 67.3795 148.12 51.9867ZM70.0678 59.761C65.0455 59.761 60.9753 55.6899 60.9753 50.6684C60.9753 45.6466 65.0455 41.5757 70.0678 41.5757C75.0891 41.5757 79.1609 45.6468 79.1609 50.6684C79.1612 55.6899 75.0893 59.761 70.0678 59.761ZM103.409 59.761C98.3865 59.761 94.3154 55.6899 94.3154 50.6684C94.3154 45.6466 98.3865 41.5757 103.409 41.5757C108.431 41.5757 112.502 45.6468 112.502 50.6684C112.502 55.6899 108.431 59.761 103.409 59.761Z" fill="#F3156C"/>
<path d="M38.3231 93.1713C32.2325 88.1282 27.4314 82.225 24.0552 75.6264C20.4952 68.6694 18.6904 61.2687 18.6904 53.6304C18.6904 45.9918 20.4955 38.5914 24.0552 31.6344C24.3277 31.1019 24.613 30.576 24.9037 30.0525C9.86981 38.6657 0 53.041 0 69.2914C0 83.8911 7.86462 97.4276 21.6042 106.533C24.1418 116.509 18.2531 127.064 18.1909 127.172C18.0188 127.475 17.934 127.82 17.9457 128.169C17.9575 128.518 18.0654 128.857 18.2574 129.148C18.4496 129.44 18.7186 129.673 19.0347 129.821C19.3509 129.969 19.7019 130.027 20.0489 129.989C26.9229 129.225 39.0278 122.239 48.1982 116.348C51.3124 116.769 54.4514 116.979 57.5939 116.979C69.6409 116.979 80.8337 113.898 90.0894 108.641C88.0179 108.809 85.9404 108.893 83.8621 108.895C66.7424 108.895 50.5698 103.311 38.3231 93.1713Z" fill="#3540BC"/>
<path d="M158.055 48V16.1148H166.711V41.0251H179.602V48H158.055ZM193.95 16.1148V48H185.294V16.1148H193.95ZM208.963 16.1148L215.502 38.5964H215.751L222.29 16.1148H232.067L221.543 48H209.71L199.186 16.1148H208.963ZM237.331 48V16.1148H260.31V23.0897H245.987V28.57H259.127V35.5449H245.987V41.0251H260.248V48H237.331Z" fill="#FAFEFF"/>
<path d="M180.066 79.303H173.15C173.101 78.7307 172.97 78.2116 172.757 77.7456C172.553 77.2796 172.267 76.879 171.899 76.5438C171.539 76.2004 171.102 75.9388 170.587 75.7589C170.072 75.5709 169.487 75.4769 168.833 75.4769C167.688 75.4769 166.72 75.7549 165.927 76.3108C165.142 76.8667 164.545 77.6638 164.136 78.7021C163.736 79.7404 163.535 80.9872 163.535 82.4424C163.535 83.9794 163.74 85.2671 164.148 86.3054C164.565 87.3355 165.166 88.1121 165.951 88.6354C166.736 89.1504 167.68 89.408 168.784 89.408C169.413 89.408 169.978 89.3303 170.476 89.175C170.975 89.0114 171.408 88.7784 171.776 88.4759C172.144 88.1735 172.442 87.8096 172.671 87.3845C172.908 86.9512 173.068 86.4648 173.15 85.9252L180.066 85.9742C179.984 87.0371 179.686 88.1203 179.171 89.224C178.656 90.3195 177.924 91.3333 176.976 92.2653C176.036 93.1891 174.871 93.9331 173.481 94.4972C172.091 95.0613 170.476 95.3434 168.637 95.3434C166.331 95.3434 164.263 94.8488 162.432 93.8595C160.608 92.8703 159.165 91.415 158.103 89.4938C157.048 87.5726 156.521 85.2221 156.521 82.4424C156.521 79.6464 157.06 77.2919 158.139 75.3788C159.219 73.4575 160.674 72.0064 162.505 71.0253C164.336 70.0361 166.38 69.5415 168.637 69.5415C170.223 69.5415 171.682 69.7581 173.015 70.1914C174.347 70.6247 175.516 71.2583 176.522 72.0922C177.528 72.918 178.337 73.9358 178.95 75.1458C179.563 76.3558 179.935 77.7415 180.066 79.303ZM183.16 95V69.8848H189.978V79.6955H199.004V69.8848H205.822V95H199.004V85.1894H189.978V95H183.16ZM215.584 95H208.226L216.516 69.8848H225.836L234.126 95H226.768L221.274 76.8013H221.077L215.584 95ZM214.21 85.0913H228.043V90.1928H214.21V85.0913ZM232.688 75.3788V69.8848H254.516V75.3788H246.962V95H240.242V75.3788H232.688Z" fill="#F3156C"/>
</svg>
