<svg width="16" height="16" viewBox="0 0 16 16" fill="none" xmlns="http://www.w3.org/2000/svg">
<g clip-path="url(#clip0_608_1535)">
<path d="M0.8 13.0667H2.13333V14.6667C2.13422 15.4027 2.73065 15.9991 3.46667 16H12.5333C13.2693 15.9991 13.8658 15.4027 13.8667 14.6667V13.0667H15.2C15.6418 13.0667 16 12.7085 16 12.2667V9.6C16 9.15817 15.6418 8.8 15.2 8.8H13.8667V7.2C13.8658 6.46399 13.2693 5.86755 12.5333 5.86667V4.53333C12.5333 2.02964 10.5037 0 8 0C5.49631 0 3.46667 2.02964 3.46667 4.53333V5.86667C2.73065 5.86755 2.13422 6.46399 2.13333 7.2V8.8H0.8C0.358172 8.8 0 9.15817 0 9.6V12.2667C0 12.7085 0.358172 13.0667 0.8 13.0667ZM13.3333 14.6667C13.3333 15.1085 12.9752 15.4667 12.5333 15.4667H3.46667C3.02484 15.4667 2.66667 15.1085 2.66667 14.6667V13.0667H13.3333V14.6667ZM4 4.53333C4 2.32419 5.79086 0.533333 8 0.533333C10.2091 0.533333 12 2.32419 12 4.53333V5.86667H10.9333V4.53333C10.9333 2.9133 9.62004 1.6 8 1.6C6.37996 1.6 5.06667 2.9133 5.06667 4.53333V5.86667H4V4.53333ZM5.6 5.86667V4.53333C5.6 3.20785 6.67452 2.13333 8 2.13333C9.32548 2.13333 10.4 3.20785 10.4 4.53333V5.86667H5.6ZM2.66667 7.2C2.66667 6.75817 3.02484 6.4 3.46667 6.4H12.5333C12.9752 6.4 13.3333 6.75817 13.3333 7.2V8.8H2.66667V7.2ZM0.533333 9.6C0.533333 9.45272 0.652724 9.33333 0.8 9.33333H15.2C15.3473 9.33333 15.4667 9.45272 15.4667 9.6V12.2667C15.4667 12.4139 15.3473 12.5333 15.2 12.5333H0.8C0.652724 12.5333 0.533333 12.4139 0.533333 12.2667V9.6Z" fill="#AA0596"/>
<path d="M1.11151 11.6147C1.15076 11.6735 1.21178 11.7144 1.28114 11.7282C1.35051 11.7421 1.42254 11.7278 1.48138 11.6886L1.86671 11.4315V11.7334C1.86671 11.8806 1.9861 12 2.13338 12C2.28065 12 2.40005 11.8806 2.40005 11.7334V11.4315L2.78538 11.6886C2.86464 11.7414 2.9661 11.748 3.05152 11.7058C3.13694 11.6636 3.19336 11.579 3.19952 11.4839C3.20568 11.3889 3.16064 11.2977 3.08138 11.2448L2.61338 10.9334L3.08058 10.6219C3.15984 10.569 3.20488 10.4779 3.19872 10.3828C3.19256 10.2877 3.13614 10.2031 3.05072 10.1609C2.9653 10.1187 2.86384 10.1253 2.78458 10.1782L2.40005 10.4352V10.1334C2.40005 9.98609 2.28065 9.8667 2.13338 9.8667C1.9861 9.8667 1.86671 9.98609 1.86671 10.1334V10.4352L1.48138 10.1782C1.35884 10.0964 1.19325 10.1295 1.11151 10.252C1.02977 10.3746 1.06284 10.5402 1.18538 10.6219L1.65338 10.9334L1.18538 11.2448C1.12653 11.2841 1.08568 11.3451 1.07183 11.4145C1.05798 11.4838 1.07225 11.5559 1.11151 11.6147Z" fill="#AA0596"/>
<path d="M4.04486 11.6147C4.08411 11.6735 4.14513 11.7144 4.21449 11.7282C4.28386 11.7421 4.35589 11.7278 4.41473 11.6886L4.80006 11.4315V11.7334C4.80006 11.8806 4.91945 12 5.06673 12C5.214 12 5.33339 11.8806 5.33339 11.7334V11.4315L5.71873 11.6886C5.79799 11.7414 5.89945 11.748 5.98487 11.7058C6.07029 11.6636 6.12671 11.579 6.13287 11.4839C6.13903 11.3889 6.09399 11.2977 6.01473 11.2448L5.54673 10.9334L6.01393 10.6219C6.09319 10.569 6.13823 10.4779 6.13207 10.3828C6.12591 10.2877 6.06949 10.2031 5.98407 10.1609C5.89865 10.1187 5.79719 10.1253 5.71793 10.1782L5.33339 10.4352V10.1334C5.33339 9.98609 5.214 9.8667 5.06673 9.8667C4.91945 9.8667 4.80006 9.98609 4.80006 10.1334V10.4352L4.41473 10.1782C4.29219 10.0964 4.1266 10.1295 4.04486 10.252C3.96312 10.3746 3.99619 10.5402 4.11873 10.6219L4.58673 10.9334L4.11953 11.2448C4.06055 11.284 4.01954 11.3449 4.00553 11.4143C3.99153 11.4837 4.00568 11.5558 4.04486 11.6147Z" fill="#AA0596"/>
<path d="M9.91156 11.6147C9.95081 11.6735 10.0118 11.7144 10.0812 11.7282C10.1506 11.7421 10.2226 11.7278 10.2814 11.6886L10.6668 11.4315V11.7334C10.6668 11.8806 10.7862 12 10.9334 12C11.0807 12 11.2001 11.8806 11.2001 11.7334V11.4315L11.5854 11.6886C11.6647 11.7414 11.7661 11.748 11.8516 11.7058C11.937 11.6636 11.9934 11.579 11.9996 11.4839C12.0057 11.3889 11.9607 11.2977 11.8814 11.2448L11.4134 10.9334L11.8806 10.6219C11.9599 10.569 12.0049 10.4779 11.9988 10.3828C11.9926 10.2877 11.9362 10.2031 11.8508 10.1609C11.7653 10.1187 11.6639 10.1253 11.5846 10.1782L11.2001 10.4352V10.1334C11.2001 9.98609 11.0807 9.8667 10.9334 9.8667C10.7862 9.8667 10.6668 9.98609 10.6668 10.1334V10.4352L10.2814 10.1782C10.1589 10.0964 9.9933 10.1295 9.91156 10.252C9.82982 10.3746 9.86289 10.5402 9.98543 10.6219L10.4534 10.9334L9.98623 11.2448C9.92725 11.284 9.88624 11.3449 9.87223 11.4143C9.85823 11.4837 9.87238 11.5558 9.91156 11.6147Z" fill="#AA0596"/>
<path d="M6.97821 11.6147C7.01746 11.6735 7.07848 11.7144 7.14784 11.7282C7.21721 11.7421 7.28924 11.7278 7.34808 11.6886L7.73341 11.4315V11.7334C7.73341 11.8806 7.8528 12 8.00008 12C8.14735 12 8.26674 11.8806 8.26674 11.7334V11.4315L8.65208 11.6886C8.73134 11.7414 8.8328 11.748 8.91822 11.7058C9.00364 11.6636 9.06006 11.579 9.06622 11.4839C9.07238 11.3889 9.02734 11.2977 8.94808 11.2448L8.48008 10.9334L8.94728 10.6219C9.02654 10.569 9.07158 10.4779 9.06542 10.3828C9.05926 10.2877 9.00284 10.2031 8.91742 10.1609C8.832 10.1187 8.73054 10.1253 8.65128 10.1782L8.26674 10.4352V10.1334C8.26674 9.98609 8.14735 9.8667 8.00008 9.8667C7.8528 9.8667 7.73341 9.98609 7.73341 10.1334V10.4352L7.34808 10.1782C7.22554 10.0964 7.05995 10.1295 6.97821 10.252C6.89647 10.3746 6.92954 10.5402 7.05208 10.6219L7.52008 10.9334L7.05288 11.2448C6.9939 11.284 6.95289 11.3449 6.93888 11.4143C6.92488 11.4837 6.93903 11.5558 6.97821 11.6147Z" fill="#AA0596"/>
<path d="M4.26662 6.93335H3.46662C3.31934 6.93335 3.19995 7.05274 3.19995 7.20002V8.00002C3.19995 8.14729 3.31934 8.26668 3.46662 8.26668C3.61389 8.26668 3.73328 8.14729 3.73328 8.00002V7.46668H4.26662C4.41389 7.46668 4.53328 7.34729 4.53328 7.20002C4.53328 7.05274 4.41389 6.93335 4.26662 6.93335Z" fill="#AA0596"/>
<path d="M13.0667 12H14.6667C14.814 12 14.9334 11.8806 14.9334 11.7333C14.9334 11.5861 14.814 11.4667 14.6667 11.4667H13.0667C12.9194 11.4667 12.8 11.5861 12.8 11.7333C12.8 11.8806 12.9194 12 13.0667 12Z" fill="#AA0596"/>
</g>
<defs>
<clipPath id="clip0_608_1535">
<rect width="16" height="16" fill="white"/>
</clipPath>
</defs>
</svg>
