<svg width="28" height="25" viewBox="0 0 28 25" fill="none" xmlns="http://www.w3.org/2000/svg">
<path d="M16.8231 16.6922C16.4749 16.6922 16.141 16.8108 15.8947 17.0219C15.6485 17.233 15.5102 17.5193 15.5102 17.8179V20.5604C15.5097 20.9819 15.3143 21.3861 14.9667 21.6842C14.6191 21.9823 14.1478 22.15 13.6562 22.1504H4.47986C3.98823 22.15 3.51692 21.9823 3.16934 21.6842C2.82176 21.3861 2.62631 20.9819 2.62588 20.5604V4.24332C2.62631 3.82181 2.82176 3.41766 3.16934 3.11956C3.51692 2.82146 3.98823 2.65376 4.47986 2.65326H13.6562C14.1478 2.65376 14.6191 2.82146 14.9667 3.11956C15.3143 3.41766 15.5097 3.82181 15.5102 4.24332V6.61386C15.5102 6.91242 15.6485 7.19874 15.8947 7.40985C16.141 7.62097 16.4749 7.73957 16.8231 7.73957C17.1713 7.73957 17.5053 7.62097 17.7515 7.40985C17.9977 7.19874 18.1361 6.91242 18.1361 6.61386V4.24332C18.1346 3.22496 17.6622 2.24866 16.8224 1.52853C15.9826 0.808399 14.8439 0.403221 13.6562 0.401855H4.47986C3.29212 0.403221 2.15349 0.808399 1.31369 1.52853C0.473878 2.24866 0.00144739 3.22496 0 4.24332V20.5604C0.00144739 21.5787 0.473878 22.555 1.31369 23.2752C2.15349 23.9953 3.29212 24.4005 4.47986 24.4019H13.6562C14.8439 24.4005 15.9826 23.9953 16.8224 23.2752C17.6622 22.555 18.1346 21.5787 18.1361 20.5604V17.8179C18.1361 17.5193 17.9977 17.233 17.7515 17.0219C17.5053 16.8108 17.1713 16.6922 16.8231 16.6922Z" fill="#E10B0B"/>
<path d="M27.6037 11.5825L22.9313 7.57918C22.6882 7.37084 22.3596 7.25252 22.0159 7.24963C21.6722 7.24673 21.3409 7.3595 21.0932 7.5637C20.5625 8.00132 20.5751 8.74241 21.0959 9.18894L23.5287 11.2762H12.1499C11.8016 11.2762 11.4677 11.3948 11.2215 11.6059C10.9752 11.817 10.8369 12.1033 10.8369 12.4019C10.8369 12.7004 10.9752 12.9868 11.2215 13.1979C11.4677 13.409 11.8016 13.5276 12.1499 13.5276H23.5287L21.0724 15.6336C20.8261 15.8447 20.6877 16.131 20.6876 16.4296C20.6876 16.7282 20.8259 17.0146 21.0721 17.2258C21.3183 17.4369 21.6523 17.5556 22.0005 17.5556C22.3488 17.5557 22.6828 17.4371 22.9291 17.226L27.6037 13.2199C27.7293 13.1125 27.8289 12.9848 27.8968 12.8444C27.9648 12.7039 27.9998 12.5533 27.9998 12.4012C27.9998 12.2491 27.9648 12.0985 27.8968 11.958C27.8289 11.8175 27.7293 11.6899 27.6037 11.5825Z" fill="#E10B0B"/>
</svg>
