<svg width="26" color="#EEF6FB" height="27" viewBox="0 0 26 27" fill="none" xmlns="http://www.w3.org/2000/svg">
<g clip-path="url(#clip0_1150_39)">
<path d="M13 0.862488C20.1825 0.862488 26 6.60728 26 13.7C26 20.7926 20.1825 26.5374 13 26.5374C5.81758 26.5374 0 20.7927 0 13.7C0 6.60722 5.81752 0.862488 13 0.862488ZM23.4 13.7C23.4 8.02581 18.746 3.42995 13 3.42995C10.595 3.42995 8.39145 4.24515 6.62999 5.59308L21.2095 19.9904C22.5745 18.2509 23.4 16.0749 23.4 13.7ZM13 23.97C15.405 23.97 17.6085 23.1548 19.37 21.8068L4.79054 7.40961C3.42554 9.14911 2.60002 11.3251 2.60002 13.7C2.60002 19.3742 7.25399 23.97 13 23.97Z" fill="currentColor"/> 
</g>
<defs>
<clipPath id="clip0_1150_39">
<rect width="26" height="25.675" fill="white" transform="matrix(-1 0 0 1 26 0.862488)"/>
</clipPath>
</defs>
</svg>
