<svg width="138" height="146" viewBox="0 0 138 146" fill="none" xmlns="http://www.w3.org/2000/svg">
<path d="M30 8H108V51H30V8Z" fill="#FEE253"/>
<path d="M42 17H63V22H42V17Z" fill="white"/>
<path d="M67 17H73V22H67V17Z" fill="white"/>
<path d="M108 33H84V8L108 33Z" fill="#FAB915"/>
<path d="M138 62.5086V126H0V62.5086C0 59.4563 1.19814 56.5291 3.33085 54.3708C5.46355 52.2125 8.35612 51 11.3722 51H126.628C129.644 51 132.536 52.2125 134.669 54.3708C136.802 56.5291 138 59.4563 138 62.5086Z" fill="#F15D41"/>
<path d="M118 51V75.75C118.003 76.8322 117.797 77.9044 117.393 78.9051C116.989 79.9059 116.395 80.8156 115.645 81.582C114.895 82.3485 114.004 82.9566 113.023 83.3715C112.042 83.7864 110.99 84 109.928 84H28.0721C27.0099 84 25.9582 83.7864 24.9771 83.3715C23.9961 82.9566 23.1051 82.3485 22.3552 81.582C21.6053 80.8156 21.0112 79.9059 20.6071 78.9051C20.2029 77.9044 19.9966 76.8322 20 75.75V51H118Z" fill="#91D9B9"/>
<path d="M118 74V75.1798C118.003 76.3367 117.797 77.483 117.393 78.553C116.989 79.623 116.395 80.5955 115.645 81.4149C114.895 82.2343 114.004 82.8845 113.023 83.3281C112.042 83.7717 110.99 84 109.928 84H28.0721C27.0099 84 25.9582 83.7717 24.9771 83.3281C23.9961 82.8845 23.1051 82.2343 22.3552 81.4149C21.6053 80.5955 21.0112 79.623 20.6071 78.553C20.2029 77.483 19.9966 76.3367 20 75.1798V74H118Z" fill="#54B285"/>
<path d="M116.556 98H21.4442C17.3329 98 14 101.358 14 105.5C14 109.642 17.3329 113 21.4442 113H116.556C120.667 113 124 109.642 124 105.5C124 101.358 120.667 98 116.556 98Z" fill="#343F45"/>
<path d="M30 106H108V146H30V106Z" fill="#FEE253"/>
<path d="M29.7211 105.571H108.304V113.008H29.7211V105.571Z" fill="#FAB915"/>
<path d="M43.6489 118.86H77.05V123.971H43.6489V118.86Z" fill="#FAB915"/>
<path d="M43.6489 130.897H94.3767V136.008H43.6489V130.897Z" fill="#FAB915"/>
<path d="M28 0C23.5886 0 20 3.58862 20 8C20 12.4114 23.5886 16 28 16C32.4114 16 36 12.4114 36 8C36 3.58862 32.4114 0 28 0Z" fill="#F44336"/>
<path d="M30.9461 10.0033C31.2067 10.2641 31.2067 10.6853 30.9461 10.9461C30.8161 11.0761 30.6454 11.1414 30.4746 11.1414C30.304 11.1414 30.1333 11.0761 30.0033 10.9461L28 8.94266L25.9967 10.9461C25.8667 11.0761 25.6961 11.1414 25.5254 11.1414C25.3546 11.1414 25.184 11.0761 25.054 10.9461C24.7934 10.6853 24.7934 10.2641 25.054 10.0033L27.0574 8.00003L25.054 5.99673C24.7934 5.73599 24.7934 5.31473 25.054 5.05399C25.3147 4.79337 25.736 4.79337 25.9967 5.05399L28 7.0574L30.0033 5.05399C30.2641 4.79337 30.6853 4.79337 30.9461 5.05399C31.2067 5.31473 31.2067 5.73599 30.9461 5.99673L28.9427 8.00003L30.9461 10.0033Z" fill="#FAFAFA"/>
</svg>
