<svg width="512" height="512" viewBox="0 0 512 512" fill="none" xmlns="http://www.w3.org/2000/svg">
<path d="M256 0C114.509 0 0 114.496 0 256C0 397.489 114.496 512 256 512C397.491 512 512 397.504 512 256C512 114.509 397.504 0 256 0ZM256 476.279C134.538 476.279 35.721 377.463 35.721 256C35.721 134.537 134.538 35.721 256 35.721C377.463 35.721 476.279 134.537 476.279 256C476.279 377.463 377.463 476.279 256 476.279Z" fill="#AA0596"/>
<path d="M248.426 323.924C234.273 323.924 222.816 335.718 222.816 349.87C222.816 363.687 233.936 375.818 248.426 375.818C262.916 375.818 274.372 363.687 274.372 349.87C274.372 335.718 262.578 323.924 248.426 323.924ZM252.806 127.469C207.314 127.469 186.422 154.428 186.422 172.624C186.422 185.766 197.542 191.832 206.64 191.832C224.837 191.832 217.424 165.884 251.795 165.884C268.643 165.884 282.123 173.298 282.123 188.799C282.123 206.995 263.252 217.441 252.132 226.876C242.359 235.299 229.555 249.116 229.555 278.096C229.555 295.618 234.273 300.673 248.088 300.673C264.599 300.673 267.969 293.26 267.969 286.856C267.969 269.334 268.306 259.225 286.84 244.735C295.938 237.659 324.58 214.744 324.58 183.069C324.58 151.394 295.938 127.469 252.806 127.469Z" fill="#AA0596"/>
</svg>
