<svg width="19" height="19" viewBox="0 0 19 19" fill="none" xmlns="http://www.w3.org/2000/svg">
<g clip-path="url(#clip0_568_46)">
<path d="M18.3251 16.379C17.9169 16.4162 17.5559 16.1155 17.5187 15.7072L17.4203 14.6285C15.7519 17.2487 12.8557 19 9.49998 19C5.88995 19 2.70852 16.9396 1.12922 13.8472C0.942784 13.4822 1.08758 13.0351 1.45263 12.8487C1.81775 12.6622 2.26473 12.807 2.45117 13.1721C3.78774 15.7892 6.47175 17.5156 9.49998 17.5156C12.2601 17.5156 14.7509 16.0783 16.1779 13.8267L15.1197 14.5825C14.7861 14.8207 14.3226 14.7434 14.0844 14.4099C13.8462 14.0763 13.9234 13.6128 14.257 13.3746L17.466 11.0826C17.9363 10.7474 18.585 11.0543 18.6365 11.6192L18.9968 15.5725C19.0341 15.9807 18.7334 16.3418 18.3251 16.379Z" fill="#211D1A"/>
<path d="M17.5473 6.15132C17.1822 6.33772 16.7352 6.19296 16.5488 5.82791C15.2122 3.21081 12.5282 1.48437 9.49996 1.48437C6.73988 1.48437 4.24902 2.92165 2.82202 5.17334L3.88026 4.41753C4.21384 4.17933 4.67734 4.25659 4.91558 4.59013C5.15378 4.9237 5.07652 5.3872 4.74298 5.62544L1.53395 7.91735C1.06938 8.24926 0.415436 7.95153 0.363483 7.38079L0.00311376 3.42753C-0.0341069 3.01933 0.266665 2.65825 0.674831 2.62103C1.08355 2.58388 1.44414 2.88495 1.48133 3.29278L1.57967 4.37152C3.24803 1.75134 6.1442 -4.76837e-06 9.49996 -4.76837e-06C13.11 -4.76837e-06 16.2914 2.06038 17.8707 5.15278C18.0572 5.51783 17.9124 5.96488 17.5473 6.15132Z" fill="#211D1A"/>
</g>
<defs>
<clipPath id="clip0_568_46">
<rect width="19" height="19" fill="white" transform="matrix(1 0 0 -1 0 19)"/>
</clipPath>
</defs>
</svg>
