<svg width="39" height="39" viewBox="0 0 39 39" fill="none" xmlns="http://www.w3.org/2000/svg">
<g clip-path="url(#clip0_1421_2)">
<path d="M12.0036 20.2766C11.9789 20.2766 11.9542 20.2757 11.9292 20.2742L1.19195 19.6039C0.783423 19.5786 0.416846 19.345 0.22106 18.9859C0.025572 18.6267 0.0279523 18.192 0.227904 17.835C0.28414 17.7344 1.63738 15.3484 4.21443 13.2673C7.69692 10.4555 11.7453 9.54352 15.9217 10.6302C16.2683 10.7203 16.5558 10.9619 16.7045 11.2877C16.8533 11.6136 16.8474 11.9891 16.6882 12.3098L13.0697 19.6149C12.868 20.0219 12.4535 20.2766 12.0036 20.2766Z" fill="#FF5B5B"/>
<path d="M20.6597 39C20.4639 39 20.2681 38.9518 20.0905 38.8548C19.7314 38.659 19.4978 38.2928 19.4722 37.8842L18.8021 27.147C18.7724 26.6688 19.0321 26.2192 19.4615 26.0065L26.7665 22.3877C27.0876 22.2288 27.4628 22.2229 27.7886 22.3716C28.1147 22.5201 28.356 22.8079 28.4462 23.1545C29.5331 27.3309 28.6212 31.3793 25.809 34.8618C23.7283 37.4388 21.342 38.7918 21.2414 38.8483C21.0608 38.9495 20.8602 39 20.6597 39Z" fill="#FF193D"/>
<path d="M37.1673 9.60209L29.474 1.90873C29.1657 1.60047 28.7135 1.48561 28.2954 1.6091C23.1452 3.13253 18.9173 5.52183 15.7285 8.71034C15.0635 9.37566 14.4247 10.0966 13.8302 10.853C12.1014 13.051 10.6574 15.6497 9.53867 18.5773C8.82605 20.4432 8.24583 22.4421 7.81409 24.5184C7.06011 28.1452 7.01964 30.7446 7.01815 30.8535C7.01429 31.1739 7.13985 31.4828 7.36658 31.7095C7.58974 31.9327 7.89264 32.0579 8.20804 32.0579H8.22262C8.33182 32.0567 10.9312 32.0163 14.5577 31.2623C16.634 30.8305 18.6329 30.2503 20.4991 29.5374C23.4264 28.4186 26.0251 26.9749 28.2225 25.2465C28.9795 24.6517 29.7004 24.0129 30.3657 23.3475C33.5545 20.1587 35.9438 15.9309 37.467 10.7807C37.5908 10.3626 37.4756 9.91035 37.1673 9.60209Z" fill="#E1F1FA"/>
<path d="M15.3705 29.4697L9.60646 23.7056C9.18097 23.2801 8.50464 23.2394 8.03095 23.6107C7.66288 23.8993 7.31267 24.2094 6.99013 24.5319C2.9795 28.5425 2.85542 34.7568 2.85215 35.0192C2.84799 35.34 2.97355 35.6488 3.20058 35.8756C3.42374 36.099 3.72634 36.2243 4.04174 36.2243C4.0468 36.2243 4.05186 36.2243 4.05692 36.224C4.31935 36.2207 10.5339 36.0966 14.5442 32.086C14.8668 31.7635 15.1768 31.4133 15.4654 31.0452C15.8368 30.5715 15.796 29.8952 15.3705 29.4697Z" fill="#FFF261"/>
<path d="M9.63067 18.3394L6.09433 21.876C5.87117 22.0989 5.74561 22.4015 5.74561 22.7172C5.74561 23.0326 5.87117 23.3352 6.09433 23.5583L15.5179 32.9819C15.7408 33.2051 16.0434 33.3303 16.3591 33.3303C16.6748 33.3303 16.9771 33.2051 17.2003 32.9819L20.7366 29.4456L9.63067 18.3394Z" fill="#1B3B6B"/>
<path d="M25.0684 17.6377C24.099 17.6377 23.1873 17.2601 22.5018 16.5745C21.0866 15.1594 21.0866 12.857 22.5018 11.4416C23.1873 10.756 24.099 10.3784 25.0684 10.3784C26.0378 10.3784 26.9495 10.756 27.6351 11.4416C28.3206 12.1271 28.6982 13.0385 28.6982 14.0082C28.6982 14.9776 28.3206 15.889 27.6351 16.5745C26.9495 17.2601 26.0378 17.6377 25.0684 17.6377Z" fill="#06CCAB"/>
<path d="M25.0681 18.8014C23.7877 18.8014 22.5841 18.3028 21.679 17.3976C19.8101 15.5287 19.8101 12.4878 21.679 10.6189C22.5841 9.71378 23.788 9.21509 25.0681 9.21509C26.3484 9.21509 27.552 9.71378 28.4574 10.6189C29.3629 11.5243 29.8612 12.7279 29.8612 14.0083C29.8612 15.2886 29.3629 16.4922 28.4574 17.3976C27.552 18.3028 26.3484 18.8014 25.0681 18.8014ZM25.0681 11.5946C24.4236 11.5946 23.8172 11.8457 23.3613 12.3015C22.4205 13.2427 22.4205 14.7739 23.3613 15.715C23.8172 16.1708 24.4236 16.422 25.0681 16.422C25.7128 16.422 26.319 16.1708 26.7748 15.715C27.2306 15.2592 27.4818 14.653 27.4818 14.0083C27.4818 13.3635 27.2306 12.7574 26.7748 12.3015C26.319 11.8457 25.7128 11.5946 25.0681 11.5946Z" fill="#1B3B6B"/>
<path d="M38.7277 0.348646C38.5007 0.121618 38.19 -0.00602934 37.8711 0.000219137C37.6946 0.00230196 33.4888 0.073118 28.2954 1.60905L37.467 10.7806C39.0029 5.58725 39.0737 1.38143 39.0758 1.20498C39.08 0.88423 38.9544 0.575377 38.7277 0.348646Z" fill="#FF5B5B"/>
<path d="M37.1675 9.60205L33.3208 5.75537L7.3667 31.7095C7.58986 31.9326 7.89246 32.0579 8.20786 32.0579H8.22274C8.33164 32.0567 10.931 32.0162 14.5578 31.2622C16.6341 30.8305 18.6327 30.2503 20.4989 29.5374C23.4265 28.4186 26.0252 26.9749 28.2226 25.2465C28.9793 24.6517 29.7005 24.0128 30.3656 23.3475C33.5544 20.1587 35.9437 15.9309 37.4668 10.7806C37.5909 10.3626 37.4757 9.91031 37.1675 9.60205Z" fill="#CDEBFC"/>
<path d="M15.3704 29.4697L12.4884 26.5876L3.2002 35.8756V35.8759C3.42365 36.099 3.72626 36.2243 4.04166 36.2243H4.05653C4.31927 36.221 10.5335 36.0966 14.5442 32.086C14.8667 31.7635 15.1767 31.4133 15.4651 31.0452C15.8367 30.5715 15.7962 29.8952 15.3704 29.4697Z" fill="#FDBF00"/>
<path d="M15.184 23.8923L10.8062 28.2701L15.5181 32.9821C15.741 33.2049 16.0436 33.3305 16.3593 33.3305C16.675 33.3305 16.9773 33.2049 17.2004 32.9821L20.7368 29.4454L15.184 23.8923Z" fill="#001035"/>
<path d="M27.6347 11.4417C27.6344 11.4417 27.6344 11.4417 27.6344 11.4417L22.5015 16.5746H22.5018C23.187 17.2602 24.0987 17.6378 25.0681 17.6378C26.0375 17.6378 26.9492 17.2602 27.6347 16.5746C28.3203 15.8891 28.6979 14.9777 28.6979 14.0083C28.6976 13.0389 28.3203 12.1272 27.6347 11.4417Z" fill="#1CADB5"/>
<path d="M28.4574 10.6189L26.7748 12.3015C27.2306 12.7574 27.4818 13.3635 27.4818 14.0082C27.4818 14.653 27.2306 15.2591 26.7748 15.715C26.3189 16.1708 25.7128 16.4219 25.0681 16.4219C24.4233 16.4219 23.8172 16.1708 23.3613 15.715C23.3613 15.715 23.3613 15.715 23.3613 15.7147L21.6787 17.3973V17.3976C22.5841 18.3027 23.7877 18.8014 25.0681 18.8014C26.3484 18.8014 27.552 18.3027 28.4574 17.3976C29.3626 16.4922 29.8612 15.2886 29.8612 14.0082C29.8612 12.7279 29.3626 11.5243 28.4574 10.6189Z" fill="#001035"/>
<path d="M38.7275 0.348389L32.8813 6.19488L37.4671 10.7807C39.0031 5.58729 39.0739 1.38147 39.076 1.20503C39.0801 0.88427 38.9546 0.575417 38.7275 0.348389Z" fill="#FF193D"/>
</g>
<defs>
<clipPath id="clip0_1421_2">
<rect width="39" height="39" fill="white"/>
</clipPath>
</defs>
</svg>
