<svg width="16" height="16" viewBox="0 0 16 16" fill="none" xmlns="http://www.w3.org/2000/svg">
<path d="M8 0C3.58862 0 0 3.58862 0 8C0 12.4114 3.58862 16 8 16C12.4114 16 16 12.4114 16 8C16 3.58862 12.4114 0 8 0Z" fill="#F44336"/>
<path d="M10.946 10.0032C11.2066 10.2639 11.2066 10.6852 10.946 10.946C10.8159 11.076 10.6453 11.1413 10.4745 11.1413C10.3039 11.1413 10.1332 11.076 10.0032 10.946L7.99991 8.94254L5.99661 10.946C5.86661 11.076 5.69595 11.1413 5.5253 11.1413C5.35452 11.1413 5.18387 11.076 5.05386 10.946C4.79324 10.6852 4.79324 10.2639 5.05386 10.0032L7.05728 7.99991L5.05386 5.99661C4.79324 5.73587 4.79324 5.31461 5.05386 5.05386C5.31461 4.79324 5.73587 4.79324 5.99661 5.05386L7.99991 7.05728L10.0032 5.05386C10.2639 4.79324 10.6852 4.79324 10.946 5.05386C11.2066 5.31461 11.2066 5.73587 10.946 5.99661L8.94254 7.99991L10.946 10.0032Z" fill="#FAFAFA"/>
</svg>
