<svg width="22" height="19" viewBox="0 0 22 19" fill="none" xmlns="http://www.w3.org/2000/svg">
<path d="M10.9999 18.8733C8.38643 18.8733 5.87998 17.9312 4.03197 16.2543C2.18396 14.5773 1.14575 12.3029 1.14575 9.93142C1.14575 7.55989 2.18396 5.28549 4.03197 3.60856C5.87998 1.93164 8.38643 0.98955 10.9999 0.98955C12.5356 0.984937 14.0503 1.31287 15.4183 1.94612C15.4989 1.98326 15.5707 2.03445 15.6296 2.09677C15.6884 2.15909 15.7332 2.23132 15.7612 2.30933C15.7893 2.38734 15.8002 2.46961 15.7933 2.55144C15.7863 2.63327 15.7617 2.71305 15.7208 2.78624C15.6798 2.85943 15.6234 2.92458 15.5547 2.97799C15.4861 3.03139 15.4065 3.07199 15.3205 3.09748C15.2345 3.12297 15.1439 3.13285 15.0537 3.12654C14.9635 3.12024 14.8756 3.09787 14.7949 3.06074C13.6215 2.51194 12.32 2.22669 10.9999 2.22893C9.32329 2.22894 7.68429 2.67998 6.2901 3.52506C4.89591 4.37014 3.80911 5.57131 3.16707 6.97675C2.52503 8.38219 2.35658 9.9288 2.68301 11.4211C3.00944 12.9134 3.81609 14.2844 5.00101 15.3608C6.18593 16.4371 7.69591 17.1706 9.3401 17.4684C10.9843 17.7662 12.6889 17.615 14.2384 17.034C15.7879 16.4529 17.1128 15.468 18.0456 14.2038C18.9784 12.9396 19.4773 11.4528 19.4791 9.93142C19.4839 9.86217 19.4839 9.79271 19.4791 9.72346C19.4621 9.55801 19.5182 9.3932 19.6351 9.26528C19.752 9.13737 19.9201 9.05683 20.1024 9.04139C20.2848 9.02595 20.4664 9.07686 20.6073 9.18294C20.7483 9.28901 20.8371 9.44156 20.8541 9.60701V9.93142C20.8517 12.3023 19.8127 14.5754 17.9652 16.2518C16.1177 17.9283 13.6127 18.8711 10.9999 18.8733Z" fill="#20BF55"/>
<path d="M10.835 12.7679C10.7459 12.7691 10.6575 12.7534 10.5754 12.7219C10.4933 12.6904 10.4194 12.6438 10.3583 12.5849L5.9308 8.64216C5.80205 8.52519 5.72974 8.36662 5.72974 8.2013C5.72974 8.03598 5.80205 7.87742 5.9308 7.76045C6.0624 7.64508 6.23823 7.5806 6.42121 7.5806C6.6042 7.5806 6.78003 7.64508 6.91163 7.76045L10.8441 11.279L19.69 3.38517C19.8216 3.26981 19.9974 3.20532 20.1804 3.20532C20.3634 3.20532 20.5392 3.26981 20.6708 3.38517C20.7995 3.50214 20.8719 3.66071 20.8719 3.82603C20.8719 3.99135 20.7995 4.14991 20.6708 4.26688L11.3391 12.5849C11.2735 12.6453 11.1949 12.6927 11.1081 12.7242C11.0214 12.7557 10.9284 12.7705 10.835 12.7679Z" fill="#20BF55"/>
</svg>
