<svg width="105" height="102" viewBox="0 0 105 102" fill="none" xmlns="http://www.w3.org/2000/svg">
<path d="M83.5897 27.8362C83.5035 27.8362 83.5035 27.75 83.4173 27.6637C83.331 27.5775 83.331 27.4913 83.2448 27.4051L68.4144 10.7639C68.3281 10.6777 68.1557 10.5915 68.0695 10.5053C67.9832 10.5053 67.9832 10.419 67.897 10.419C67.7246 10.3328 67.4659 10.2466 67.2072 10.2466H30.8209C25.475 10.2466 21.0776 14.644 21.0776 19.9898V79.7428C21.0776 85.0886 25.475 89.486 30.8209 89.486H73.9327C79.2785 89.486 83.6759 85.0886 83.6759 79.7428V28.4397C83.6759 28.2673 83.5897 28.0086 83.5897 27.8362ZM68.8455 16.1098L78.4163 26.8877H68.8455V16.1098ZM80.3994 79.6565C80.3994 83.2779 77.5541 86.2095 73.9327 86.2095H30.8209C27.1995 86.2095 24.3541 83.2779 24.3541 79.7428V19.9036C24.3541 16.2822 27.2857 13.4369 30.8209 13.4369H65.569V28.4397C65.569 29.302 66.2588 30.078 67.2072 30.078H80.3994V79.6565Z" fill="#40A283"/>
<path d="M32.7173 30.078H47.1167C47.9789 30.078 48.7549 29.3882 48.7549 28.4398C48.7549 27.4913 48.0651 26.8015 47.1167 26.8015H32.7173C31.8551 26.8015 31.0791 27.4913 31.0791 28.4398C31.0791 29.3882 31.8551 30.078 32.7173 30.078ZM47.1167 69.6546H32.7173C31.8551 69.6546 31.0791 70.3444 31.0791 71.2929C31.0791 72.1551 31.7689 72.9311 32.7173 72.9311H47.1167C47.9789 72.9311 48.7549 72.2413 48.7549 71.2929C48.7549 70.4306 47.9789 69.6546 47.1167 69.6546ZM31.0791 39.3039C31.0791 40.1662 31.7689 40.9422 32.7173 40.9422H71.173C72.0353 40.9422 72.8113 40.2524 72.8113 39.3039C72.8113 38.4417 72.1215 37.6657 71.173 37.6657H32.7173C31.8551 37.6657 31.0791 38.3555 31.0791 39.3039ZM71.173 45.7707H32.7173C31.8551 45.7707 31.0791 46.4605 31.0791 47.4089C31.0791 48.2712 31.7689 49.0472 32.7173 49.0472H71.173C72.0353 49.0472 72.8113 48.3574 72.8113 47.4089C72.8113 46.4605 72.1215 45.7707 71.173 45.7707ZM71.173 53.7895H32.7173C31.8551 53.7895 31.0791 54.4793 31.0791 55.4277C31.0791 56.29 31.7689 57.066 32.7173 57.066H71.173C72.0353 57.066 72.8113 56.3762 72.8113 55.4277C72.8113 54.4793 72.1215 53.7895 71.173 53.7895ZM71.173 61.8083H32.7173C31.8551 61.8083 31.0791 62.4981 31.0791 63.4465C31.0791 64.3088 31.7689 65.0848 32.7173 65.0848H71.173C72.0353 65.0848 72.8113 64.395 72.8113 63.4465C72.8113 62.5843 72.1215 61.8083 71.173 61.8083Z" fill="#40A283"/>
<path fill-rule="evenodd" clip-rule="evenodd" d="M9 0H29.9578V5H9V25.9579H4V5V0H9ZM4 76.5072V96.7817V101.782H9H29.9578V96.7817H9V76.5072H4ZM96 76.5072V96.7817H75.0423V101.782H96H101V96.7817V76.5072H96ZM101 25.9579V5V0H96H75.0423V5H96V25.9579H101Z" fill="#40A283"/>
<g filter="url(#filter0_d_2217_14)">
<rect x="4" y="46.4507" width="97" height="3.41549" fill="#40A283"/>
</g>
<defs>
<filter id="filter0_d_2217_14" x="0" y="46.4507" width="105" height="14.4155" filterUnits="userSpaceOnUse" color-interpolation-filters="sRGB">
<feFlood flood-opacity="0" result="BackgroundImageFix"/>
<feColorMatrix in="SourceAlpha" type="matrix" values="0 0 0 0 0 0 0 0 0 0 0 0 0 0 0 0 0 0 127 0" result="hardAlpha"/>
<feOffset dy="7"/>
<feGaussianBlur stdDeviation="2"/>
<feComposite in2="hardAlpha" operator="out"/>
<feColorMatrix type="matrix" values="0 0 0 0 0 0 0 0 0 0 0 0 0 0 0 0 0 0 0.31 0"/>
<feBlend mode="normal" in2="BackgroundImageFix" result="effect1_dropShadow_2217_14"/>
<feBlend mode="normal" in="SourceGraphic" in2="effect1_dropShadow_2217_14" result="shape"/>
</filter>
</defs>
</svg>
