<svg width="37" height="37" viewBox="0 0 37 37" fill="none" xmlns="http://www.w3.org/2000/svg">
<path d="M3.66667 16.7292C4.03333 13.4292 5.5 10.3125 7.88333 7.92917C10.8167 5.17917 14.4833 3.7125 18.3333 3.7125C22 3.7125 25.85 5.17917 28.7833 7.92917L25.6667 11.0458H34.8333V1.87917L31.35 5.3625C24.2 -1.7875 12.4667 -1.7875 5.31667 5.3625C2.38333 8.29583 0.55 12.1458 0 16.3625V18.3792H3.66667V16.7292ZM33 18.3792C33 22.2292 31.5333 26.0792 28.7833 28.8292C25.85 31.5792 22.1833 33.0458 18.3333 33.0458C14.4833 33.0458 10.8167 31.5792 7.88333 28.8292L11 25.7125H1.83333V34.8792L5.31667 31.3958C8.8 34.8792 13.3833 36.7125 18.3333 36.7125C23.2833 36.7125 27.8667 34.8792 31.35 31.3958C34.8333 27.9125 36.6667 23.1458 36.6667 18.3792H33Z" fill="#EE960C"/>
</svg>
