<?xml version="1.0"?>
<svg xmlns="http://www.w3.org/2000/svg" viewBox="0 0 36 36"><g id="Layer_13" data-name="Layer 13"><path d="M27.78,16.57a3.43,3.43,0,0,1-1.86-4.48h0a3,3,0,0,1,.2-.4,10.39,10.39,0,0,0-1.81-1.82,3.41,3.41,0,0,1-5-2.07,10,10,0,0,0-2.57,0c0,.14-.09.28-.14.42a3.45,3.45,0,0,1-4.49,1.86l-.4-.2a10.06,10.06,0,0,0-1.82,1.81,3.4,3.4,0,0,1-2.08,5,10.53,10.53,0,0,0,0,2.57,4.13,4.13,0,0,1,.42.14,3.43,3.43,0,0,1,1.86,4.48,3,3,0,0,1-.2.4,10.17,10.17,0,0,0,1.82,1.83,3.4,3.4,0,0,1,5,2.08,10.53,10.53,0,0,0,2.57,0,2.6,2.6,0,0,1,.15-.42,3.42,3.42,0,0,1,4.48-1.86,3.73,3.73,0,0,1,.4.2,10.06,10.06,0,0,0,1.81-1.82,3.41,3.41,0,0,1,2.09-5,10.61,10.61,0,0,0,0-2.58A1.88,1.88,0,0,1,27.78,16.57Zm-5.5,5.71a6.06,6.06,0,1,1,0-8.56A6,6,0,0,1,22.28,22.28Zm-1.21-7.35A4.35,4.35,0,1,1,18,13.66,4.35,4.35,0,0,1,21.07,14.93ZM18,0A18,18,0,1,0,36,18,18,18,0,0,0,18,0ZM29.8,20.19a.85.85,0,0,1-.8.7,1.7,1.7,0,0,0-1.18,2.84.85.85,0,0,1,.07,1.06,12,12,0,0,1-3.1,3.1.87.87,0,0,1-1.06-.07,1.67,1.67,0,0,0-.48-.32,1.75,1.75,0,0,0-1.31,0,1.7,1.7,0,0,0-.93.93,1.64,1.64,0,0,0-.12.56.85.85,0,0,1-.7.8,11.8,11.8,0,0,1-4.38,0,.85.85,0,0,1-.7-.8,1.7,1.7,0,0,0-2.85-1.18.86.86,0,0,1-1,.07,12,12,0,0,1-3.1-3.1.87.87,0,0,1,.07-1.06,1.63,1.63,0,0,0,.31-.48A1.69,1.69,0,0,0,7,20.89a.85.85,0,0,1-.79-.7,11.73,11.73,0,0,1,0-4.38.85.85,0,0,1,.8-.7,1.71,1.71,0,0,0,1.18-2.85.84.84,0,0,1-.07-1.06,11.68,11.68,0,0,1,3.1-3.09.84.84,0,0,1,1.06.07,1.63,1.63,0,0,0,.48.31A1.71,1.71,0,0,0,15,7.56,1.54,1.54,0,0,0,15.11,7a.85.85,0,0,1,.7-.79,11.73,11.73,0,0,1,4.38,0,.87.87,0,0,1,.7.8,1.7,1.7,0,0,0,1.05,1.49,1.72,1.72,0,0,0,1.8-.31.84.84,0,0,1,1.06-.07,12,12,0,0,1,3.09,3.1.87.87,0,0,1-.07,1.06,1.63,1.63,0,0,0-.31.48A1.71,1.71,0,0,0,28.43,15a1.65,1.65,0,0,0,.57.12.85.85,0,0,1,.79.7A11.73,11.73,0,0,1,29.8,20.19Z"/></g></svg>
