<svg width="480" height="512" viewBox="0 0 480 512" fill="none" xmlns="http://www.w3.org/2000/svg">
<path d="M390 332C360.359 332 334.239 346.581 317.833 368.755L175.99 296.124C178.345 288.097 180 279.778 180 271C180 259.094 177.559 247.775 173.342 237.364L321.787 148.036C338.307 167.424 362.589 180 390 180C439.629 180 480 139.629 480 90C480 40.371 439.629 0 390 0C340.371 0 300 40.371 300 90C300 101.437 302.355 112.286 306.262 122.358L157.375 211.948C140.869 193.136 116.937 181 90 181C40.371 181 0 221.371 0 271C0 320.629 40.371 361 90 361C120.13 361 146.691 345.991 163.035 323.194L304.411 395.589C301.807 403.995 300 412.75 300 422C300 471.629 340.371 512 390 512C439.629 512 480 471.629 480 422C480 372.371 439.629 332 390 332Z" fill="#AA0596"/>
</svg>
