<svg width="36" color="#EEF6FB" height="37" viewBox="0 0 36 37" fill="none" xmlns="http://www.w3.org/2000/svg">
<path fill-rule="evenodd" clip-rule="evenodd" d="M25.0193 10.207C25.6271 10.763 25.6634 11.7002 25.1004 12.3003L11.591 26.703C10.4848 27.8824 8.64019 27.8824 7.53397 26.703L1.89954 20.696C1.3366 20.0958 1.37293 19.1586 1.98071 18.6027C2.58846 18.0468 3.53753 18.0828 4.10046 18.6828L9.5625 24.5061L22.8996 10.2872C23.4626 9.68702 24.4116 9.65114 25.0193 10.207ZM32.52 10.207C33.1277 10.763 33.1641 11.7001 32.6012 12.3003L19.0917 26.703C18.5288 27.3031 17.5797 27.3391 16.9719 26.7832C16.3641 26.2273 16.3278 25.2901 16.8907 24.6899L30.4002 10.2872C30.9632 9.68702 31.9122 9.65114 32.52 10.207Z" fill="currentColor"/>
</svg>
