<?xml version="1.0"?>
<svg xmlns="http://www.w3.org/2000/svg" viewBox="0 0 24 24"><g id="Layer_2" data-name="Layer 2"><path d="M9.70874,1.23145a11.00291,11.00291,0,0,0-6.0188,17.97589,1.10108,1.10108,0,0,1,.08057,1.298L3.26489,21.32A1.1,1.1,0,0,0,4.19946,23h7.48462A11.20926,11.20926,0,0,0,22.98071,12.65857,11.01232,11.01232,0,0,0,9.70874,1.23145ZM12,5a1.53845,1.53845,0,1,1-1.53857,1.53845A1.53858,1.53858,0,0,1,12,5Zm1.23047,13H12a.99974.99974,0,0,1-1-1V11.84619h-.23047a1,1,0,0,1,0-2H12a.99974.99974,0,0,1,1,1V16h.23047a1,1,0,0,1,0,2Z"/></g></svg>
