<svg color="#EEF6FB" width="46" height="22" viewBox="0 0 46 22" fill="none" xmlns="http://www.w3.org/2000/svg">
<path fill-rule="evenodd" clip-rule="evenodd" d="M23.9693 10.0226L17.743 3.87417C16.7783 2.92122 15.6329 2.16529 14.3722 1.64954C13.1116 1.1338 11.7604 0.868347 10.3959 0.868347C9.03131 0.868347 7.68012 1.1338 6.41948 1.64954C5.15883 2.16529 4.01342 2.92122 3.04867 3.87417L3.04229 3.87837C1.09427 5.80333 0 8.41337 0 11.1348C0 13.8562 1.09427 16.4662 3.04229 18.3912L3.04867 18.3954C4.01342 19.3483 5.15883 20.1042 6.41948 20.62C7.68012 21.1357 9.03131 21.4012 10.3959 21.4012C11.7604 21.4012 13.1116 21.1357 14.3722 20.62C15.6329 20.1042 16.7783 19.3483 17.743 18.3954L19.7193 16.4438C19.8672 16.2978 19.9845 16.1244 20.0646 15.9335C20.1446 15.7427 20.1858 15.5382 20.1858 15.3316C20.1858 15.1251 20.1446 14.9206 20.0646 14.7297C19.9845 14.5389 19.8672 14.3655 19.7193 14.2195C19.5714 14.0734 19.3958 13.9576 19.2026 13.8785C19.0093 13.7995 18.8022 13.7588 18.593 13.7588C18.3839 13.7588 18.1768 13.7995 17.9835 13.8785C17.7903 13.9576 17.6147 14.0734 17.4668 14.2195L15.4905 16.171C14.8216 16.8318 14.0273 17.356 13.1532 17.7137C12.279 18.0713 11.3421 18.2554 10.3959 18.2554C9.44964 18.2554 8.51269 18.0713 7.63853 17.7137C6.76437 17.356 5.97013 16.8318 5.30117 16.171L5.29692 16.1647C4.62737 15.5038 4.09632 14.719 3.73413 13.8552C3.37195 12.9914 3.18573 12.0656 3.18612 11.1307C3.18652 10.1959 3.37352 9.27021 3.73643 8.40674C4.09935 7.54327 4.63106 6.75892 5.30117 6.09851C5.97013 5.43769 6.76437 4.91348 7.63853 4.55583C8.51269 4.19818 9.44964 4.0141 10.3959 4.0141C11.3421 4.0141 12.279 4.19818 13.1532 4.55583C14.0273 4.91348 14.8216 5.43769 15.4905 6.09851L21.7168 12.2469C21.8647 12.393 22.0403 12.5088 22.2335 12.5879C22.4268 12.6669 22.6339 12.7076 22.843 12.7076C23.0522 12.7076 23.2593 12.6669 23.4526 12.5879C23.6458 12.5088 23.8214 12.393 23.9693 12.2469C24.1172 12.1009 24.2345 11.9275 24.3146 11.7367C24.3946 11.5458 24.4358 11.3413 24.4358 11.1348C24.4358 10.9282 24.3946 10.7237 24.3146 10.5329C24.2345 10.342 24.1172 10.1686 23.9693 10.0226Z" fill="currentColor"/>
<path fill-rule="evenodd" clip-rule="evenodd" d="M28.2195 8.05006L30.1957 6.09851C30.8652 5.43747 31.66 4.91322 32.5348 4.55574C33.4096 4.19826 34.3472 4.01456 35.2939 4.01515C36.2406 4.01573 37.1779 4.20059 38.0522 4.55915C38.9266 4.91771 39.7208 5.44294 40.3894 6.10481C41.0589 6.76576 41.59 7.55056 41.9522 8.41433C42.3143 9.2781 42.5006 10.2039 42.5002 11.1388C42.4998 12.0737 42.3128 12.9993 41.9499 13.8628C41.5869 14.7263 41.0552 15.5106 40.3851 16.171C39.7162 16.8318 38.9219 17.356 38.0478 17.7137C37.1736 18.0713 36.2367 18.2554 35.2904 18.2554C34.3442 18.2554 33.4073 18.0713 32.5331 17.7137C31.659 17.356 30.8647 16.8318 30.1957 16.171L23.9695 10.0226C23.8216 9.87654 23.646 9.76068 23.4528 9.68164C23.2595 9.6026 23.0524 9.56191 22.8432 9.56191C22.6341 9.56191 22.427 9.6026 22.2337 9.68164C22.0405 9.76068 21.8649 9.87654 21.717 10.0226C21.5691 10.1686 21.4518 10.342 21.3717 10.5329C21.2917 10.7237 21.2505 10.9282 21.2505 11.1348C21.2505 11.3413 21.2917 11.5458 21.3717 11.7367C21.4518 11.9275 21.5691 12.1009 21.717 12.2469L27.9432 18.3954C28.908 19.3483 30.0534 20.1042 31.3141 20.62C32.5747 21.1357 33.9259 21.4012 35.2904 21.4012C36.655 21.4012 38.0062 21.1357 39.2668 20.62C40.5275 20.1042 41.6729 19.3483 42.6376 18.3954L42.644 18.3912C44.592 16.4662 45.6863 13.8562 45.6863 11.1348C45.6863 8.41337 44.592 5.80333 42.644 3.87837L42.6376 3.87417C41.6729 2.92122 40.5275 2.16529 39.2668 1.64954C38.0062 1.1338 36.655 0.868347 35.2904 0.868347C33.9259 0.868347 32.5747 1.1338 31.3141 1.64954C30.0534 2.16529 28.908 2.92122 27.9432 3.87417L25.967 5.82572C25.8191 5.97177 25.7018 6.14516 25.6217 6.33599C25.5417 6.52681 25.5005 6.73134 25.5005 6.93789C25.5005 7.14444 25.5417 7.34896 25.6217 7.53979C25.7018 7.73062 25.8191 7.90401 25.967 8.05006C26.1149 8.19611 26.2905 8.31197 26.4837 8.39101C26.677 8.47005 26.8841 8.51074 27.0932 8.51074C27.3024 8.51074 27.5095 8.47005 27.7028 8.39101C27.896 8.31197 28.0716 8.19611 28.2195 8.05006Z" fill="currentColor"/>
</svg>
