<svg width="31" height="31" viewBox="0 0 31 31" fill="none" xmlns="http://www.w3.org/2000/svg">
<circle cx="15.5" cy="15.5" r="15.5" fill="#D9D9D9"/>
<path d="M15.4017 15.0038C16.4328 15.0038 17.3258 14.5601 18.0553 13.6848C18.7849 12.8096 19.1547 11.7388 19.1547 10.5018C19.1547 9.26505 18.7849 8.19413 18.0552 7.31866C17.3255 6.44363 16.4327 6 15.4017 6C14.3704 6 13.4777 6.44363 12.7482 7.31881C12.0186 8.19398 11.6486 9.26494 11.6486 10.5018C11.6486 11.7388 12.0186 12.8098 12.7483 13.685C13.478 14.56 14.3708 15.0038 15.4017 15.0038ZM21.9685 20.3728C21.9474 20.0086 21.9049 19.6113 21.8422 19.1918C21.779 18.7691 21.6976 18.3695 21.6001 18.0043C21.4994 17.6268 21.3625 17.2541 21.1932 16.8968C21.0175 16.5261 20.8111 16.2032 20.5795 15.9375C20.3373 15.6596 20.0409 15.4361 19.698 15.2731C19.3564 15.111 18.9777 15.0289 18.5727 15.0289C18.4136 15.0289 18.2598 15.1072 17.9627 15.3392C17.7515 15.5041 17.5397 15.6679 17.3273 15.8306C17.1232 15.9866 16.8467 16.1328 16.5051 16.2651C16.1719 16.3944 15.8336 16.4601 15.4996 16.4601C15.1657 16.4601 14.8275 16.3944 14.4939 16.2651C14.1528 16.1329 13.8762 15.9867 13.6723 15.8307C13.4359 15.6495 13.2219 15.484 13.0363 15.339C12.7396 15.107 12.5857 15.0287 12.4266 15.0287C12.0214 15.0287 11.6429 15.111 11.3014 15.2733C10.9588 15.436 10.6622 15.6595 10.4198 15.9377C10.1883 16.2035 9.98184 16.5262 9.80636 16.8968C9.63721 17.254 9.50026 17.6267 9.39944 18.0044C9.30205 18.3696 9.22064 18.7691 9.1574 19.1918C9.09474 19.6107 9.0522 20.0082 9.03114 20.3732C9.01019 20.7406 8.9998 21.1088 9 21.477C9 22.4527 9.25856 23.2426 9.76844 23.8251C10.272 24.4 10.9383 24.6916 11.7486 24.6916H19.2514C20.0617 24.6916 20.7277 24.4001 21.2314 23.8251C21.7414 23.243 22 22.453 22 21.4768C21.9999 21.1002 21.9893 20.7287 21.9685 20.3728Z" fill="#AA0596"/>
<path d="M15.4017 15.0038C16.4328 15.0038 17.3258 14.5601 18.0553 13.6848C18.7849 12.8096 19.1547 11.7388 19.1547 10.5018C19.1547 9.26505 18.7849 8.19413 18.0552 7.31866C17.3255 6.44363 16.4327 6 15.4017 6C14.3704 6 13.4777 6.44363 12.7482 7.31881C12.0186 8.19398 11.6486 9.26494 11.6486 10.5018C11.6486 11.7388 12.0186 12.8098 12.7483 13.685C13.478 14.56 14.3708 15.0038 15.4017 15.0038ZM21.9685 20.3728C21.9474 20.0086 21.9049 19.6113 21.8422 19.1918C21.779 18.7691 21.6976 18.3695 21.6001 18.0043C21.4994 17.6268 21.3625 17.2541 21.1932 16.8968C21.0175 16.5261 20.8111 16.2032 20.5795 15.9375C20.3373 15.6596 20.0409 15.4361 19.698 15.2731C19.3564 15.111 18.9777 15.0289 18.5727 15.0289C18.4136 15.0289 18.2598 15.1072 17.9627 15.3392C17.7515 15.5041 17.5397 15.6679 17.3273 15.8306C17.1232 15.9866 16.8467 16.1328 16.5051 16.2651C16.1719 16.3944 15.8336 16.4601 15.4996 16.4601C15.1657 16.4601 14.8275 16.3944 14.4939 16.2651C14.1528 16.1329 13.8762 15.9867 13.6723 15.8307C13.4359 15.6495 13.2219 15.484 13.0363 15.339C12.7396 15.107 12.5857 15.0287 12.4266 15.0287C12.0214 15.0287 11.6429 15.111 11.3014 15.2733C10.9588 15.436 10.6622 15.6595 10.4198 15.9377C10.1883 16.2035 9.98184 16.5262 9.80636 16.8968C9.63721 17.254 9.50026 17.6267 9.39944 18.0044C9.30205 18.3696 9.22064 18.7691 9.1574 19.1918C9.09474 19.6107 9.0522 20.0082 9.03114 20.3732C9.01019 20.7406 8.9998 21.1088 9 21.477C9 22.4527 9.25856 23.2426 9.76844 23.8251C10.272 24.4 10.9383 24.6916 11.7486 24.6916H19.2514C20.0617 24.6916 20.7277 24.4001 21.2314 23.8251C21.7414 23.243 22 22.453 22 21.4768C21.9999 21.1002 21.9893 20.7287 21.9685 20.3728Z" stroke="#211D1A"/>
</svg>
