<svg width="13" height="16" viewBox="0 0 13 16" fill="none" xmlns="http://www.w3.org/2000/svg">
<path d="M6.4017 7.70722C7.43284 7.70722 8.32575 7.32744 9.05533 6.57817C9.78491 5.82905 10.1547 4.91243 10.1547 3.8535C10.1547 2.79488 9.78491 1.87817 9.05521 1.12877C8.32551 0.379747 7.43272 0 6.4017 0C5.37041 0 4.47771 0.379747 3.74816 1.1289C3.01862 1.87805 2.64864 2.79479 2.64864 3.8535C2.64864 4.91243 3.01859 5.82917 3.74829 6.57832C4.47798 7.32735 5.37078 7.70722 6.4017 7.70722ZM12.9685 12.3031C12.9474 11.9914 12.9049 11.6513 12.8422 11.2922C12.779 10.9303 12.6976 10.5883 12.6001 10.2757C12.4994 9.95255 12.3625 9.63349 12.1932 9.32768C12.0175 9.0103 11.8111 8.73393 11.5795 8.50653C11.3373 8.26862 11.0409 8.07734 10.698 7.93778C10.3564 7.79903 9.9777 7.72872 9.5727 7.72872C9.41362 7.72872 9.25981 7.79572 8.96272 7.99434C8.75154 8.13555 8.53974 8.27575 8.32731 8.41497C8.12319 8.54853 7.84667 8.67365 7.50512 8.78693C7.17191 8.89765 6.83358 8.9538 6.49964 8.9538C6.16572 8.9538 5.82749 8.89765 5.49391 8.78693C5.15275 8.67374 4.87623 8.54865 4.67233 8.41509C4.43586 8.25994 4.22192 8.11834 4.03634 7.99419C3.73961 7.79559 3.58565 7.72856 3.42661 7.72856C3.02145 7.72856 2.64295 7.799 2.3014 7.93794C1.95878 8.07722 1.66218 8.2685 1.41978 8.50665C1.18833 8.73418 0.981841 9.0104 0.806363 9.32768C0.637215 9.63346 0.500265 9.95242 0.39944 10.2758C0.302053 10.5884 0.220644 10.9303 0.157404 11.2922C0.0947416 11.6508 0.0521959 11.991 0.0311361 12.3035C0.0101865 12.618 -0.000197456 12.9331 2.84289e-06 13.2483C2.84289e-06 14.0835 0.258564 14.7596 0.768443 15.2583C1.27202 15.7504 1.93833 16 2.74861 16H10.2514C11.0617 16 11.7277 15.7505 12.2314 15.2583C12.7414 14.76 13 14.0838 13 13.2482C12.9999 12.9258 12.9893 12.6078 12.9685 12.3031Z" fill="#AA0596"/>
<path d="M6.4017 7.70722C7.43284 7.70722 8.32575 7.32744 9.05533 6.57817C9.78491 5.82905 10.1547 4.91243 10.1547 3.8535C10.1547 2.79488 9.78491 1.87817 9.05521 1.12877C8.32551 0.379747 7.43272 0 6.4017 0C5.37041 0 4.47771 0.379747 3.74816 1.1289C3.01862 1.87805 2.64864 2.79479 2.64864 3.8535C2.64864 4.91243 3.01859 5.82917 3.74829 6.57832C4.47798 7.32735 5.37078 7.70722 6.4017 7.70722ZM12.9685 12.3031C12.9474 11.9914 12.9049 11.6513 12.8422 11.2922C12.779 10.9303 12.6976 10.5883 12.6001 10.2757C12.4994 9.95255 12.3625 9.63349 12.1932 9.32768C12.0175 9.0103 11.8111 8.73393 11.5795 8.50653C11.3373 8.26862 11.0409 8.07734 10.698 7.93778C10.3564 7.79903 9.9777 7.72872 9.5727 7.72872C9.41362 7.72872 9.25981 7.79572 8.96272 7.99434C8.75154 8.13555 8.53974 8.27575 8.32731 8.41497C8.12319 8.54853 7.84667 8.67365 7.50512 8.78693C7.17191 8.89765 6.83358 8.9538 6.49964 8.9538C6.16572 8.9538 5.82749 8.89765 5.49391 8.78693C5.15275 8.67374 4.87623 8.54865 4.67233 8.41509C4.43586 8.25994 4.22192 8.11834 4.03634 7.99419C3.73961 7.79559 3.58565 7.72856 3.42661 7.72856C3.02145 7.72856 2.64295 7.799 2.3014 7.93794C1.95878 8.07722 1.66218 8.2685 1.41978 8.50665C1.18833 8.73418 0.981841 9.0104 0.806363 9.32768C0.637215 9.63346 0.500265 9.95242 0.39944 10.2758C0.302053 10.5884 0.220644 10.9303 0.157404 11.2922C0.0947416 11.6508 0.0521959 11.991 0.0311361 12.3035C0.0101865 12.618 -0.000197456 12.9331 2.84289e-06 13.2483C2.84289e-06 14.0835 0.258564 14.7596 0.768443 15.2583C1.27202 15.7504 1.93833 16 2.74861 16H10.2514C11.0617 16 11.7277 15.7505 12.2314 15.2583C12.7414 14.76 13 14.0838 13 13.2482C12.9999 12.9258 12.9893 12.6078 12.9685 12.3031Z" stroke="#AA0596"/>
</svg>
